<svg xmlns="http://www.w3.org/2000/svg" width="270" height="71.44" viewBox="0 0 358.486 94.869"><path fill="#2064ab" d="M117.617 47.915h198.036a10.4 10.4 0 0 0 .523 3H117.617zM36.65 13.017h283.624c-3.8 3.432-12.676 5.721-16.676 9.35H36.65z"/><path fill="#231f20" d="M15.067 19.912h292.189a18.7 18.7 0 0 0-3.657 2.455H15.067z"/><path fill="#a9dfec" d="M73.555 24.821h229.164a6.1 6.1 0 0 0 .739 2.455H73.555z"/><path fill="#231f20" d="M63.154 28.598h241.141c1.092 1.494 2.545 2.88 3.692 4.3H63.154z"/><path fill="#4d83bc" d="M135.458 36.675h174.647c.548 1.005 1.2 1.932 1.691 1.857l1.164 1.211h-177.5v-3.068"/><path fill="#231f20" d="M0 45.461h315.844a12 12 0 0 0-.192 1.841H0zM180.148 50.983H316.2a9.7 9.7 0 0 0 .855 1.841H180.148z"/><path fill="#a9dfec" d="M95.866 53.633h221.73l.115.152c-.233.761-.445 1.53-.647 2.3H95.865v-2.454"/><path fill="#231f20" d="M315.861 57.685c-.128.289-.264.63-.351.856H63.252v-.856h252.61"/><path fill="#a6c1de" d="m154.348 59.28 160.4.23-.459.5s-.275.411-.556.881c-.331.516-.715 1.077-.885 1.394l-158.5.067v-3.068"/><path fill="#a9dfec" d="M330.917 42.468c.625.61.929.929 1.149 1.152h-1.295Zm-298.679-1.3h282.248l2.08 1.783-.245.672H32.238z"/><path fill="#231f20" d="M71.793 71.921h-8.95l-3.45 16.621h8.95l.323-1.576h-6.927l1.294-6.23h6.6l.323-1.527h-6.631l1.213-5.762h6.928l.323-1.526"/><path fill="#231f20" fill-rule="evenodd" d="M83.059 78.791c0-1.453-1.105-2.709-3.774-2.709-4.556 0-7.251 4.161-7.251 8.766 0 2.807 1.483 3.915 4.421 3.915a12.5 12.5 0 0 0 4.448-.739v-1.526a10 10 0 0 1-3.72.739c-2.264 0-3.073-.542-3.073-2.635a9.6 9.6 0 0 1 .162-1.6c5.929-.222 8.787-1.7 8.787-4.211m-2.049.221c0 1.552-1.914 2.364-6.443 2.536.647-2.241 2.21-4.038 4.475-4.038 1.186 0 1.968.517 1.968 1.5"/><path fill="#231f20" d="M92.864 76.279a12 12 0 0 0-2.291-.2c-3.37 0-5.149 1.6-5.149 3.62 0 2.98 4.286 3.3 4.286 5.368 0 1.429-1.321 2.143-3.208 2.143a8.1 8.1 0 0 1-2.237-.345l-.35 1.726a14.6 14.6 0 0 0 2.237.172c3.667 0 5.634-1.9 5.634-3.915 0-2.782-4.286-3.225-4.286-5.343 0-1.133 1-1.97 2.884-1.97a6.8 6.8 0 0 1 2.13.3l.351-1.552M103.535 76.304H99.68l.971-4.506-2.1.443-.835 4.063h-2.891l-.323 1.452h2.884l-1.483 7.092c-.566 2.709.108 3.891 2.776 3.891a13.3 13.3 0 0 0 2.426-.246l.081-1.576a8.3 8.3 0 0 1-1.914.2c-1.428 0-1.725-.567-1.294-2.61l1.4-6.747h3.827l.324-1.452"/><path fill="#231f20" fill-rule="evenodd" d="M109.781 72.807a1.21 1.21 0 0 0-1.267-1.231 1.423 1.423 0 0 0-1.455 1.305 1.19 1.19 0 0 0 1.266 1.21 1.4 1.4 0 0 0 1.456-1.284m-1.105 3.5h-1.968l-2.562 12.235h1.968l2.561-12.238"/><path fill="#231f20" d="M131.152 71.921h-2.669l-8.438 7.953 1.671-7.953h-2.021l-3.45 16.621h2.022l1.725-8.347 5.257 8.347h2.561l-5.634-8.4 8.977-8.224"/><path fill="#231f20" fill-rule="evenodd" d="M140.48 78.791c0-1.453-1.105-2.709-3.773-2.709-4.556 0-7.252 4.161-7.252 8.766 0 2.807 1.483 3.915 4.421 3.915a12.5 12.5 0 0 0 4.448-.739v-1.526a10 10 0 0 1-3.72.739c-2.264 0-3.073-.542-3.073-2.635a9.6 9.6 0 0 1 .161-1.6c5.933-.222 8.788-1.7 8.788-4.211m-2.048.221c0 1.552-1.915 2.364-6.443 2.536.647-2.241 2.211-4.038 4.475-4.038 1.185 0 1.968.517 1.968 1.5"/><path fill="#231f20" d="M150.987 76.082c-2.669-.419-4.34 1.97-5.9 5.072h-.062a33 33 0 0 0 1.483-4.85h-1.968l-2.531 12.238h1.968l.593-2.807c.62-3.1 3.369-8.5 6.039-7.855l.377-1.8"/><path fill="#231f20" fill-rule="evenodd" d="M163.025 76.476a24 24 0 0 0-3.989-.344c-5.849 0-8.357 4.506-8.357 8.963 0 2.561 1.052 3.694 2.939 3.694 3.477 0 5.58-3.768 6.442-5.54l.053.024a40 40 0 0 0-1.724 5.959c-.647 3-2.372 4.014-5.231 4.014a9.8 9.8 0 0 1-3.557-.665l-.456 1.845a12.4 12.4 0 0 0 3.5.443c5.068 0 7.009-2.29 7.576-5.048Zm-2.264 1.355-.216 1.059c-.647 3.078-3.531 8.323-6.308 8.323-.916 0-1.509-.69-1.509-2.438 0-3.225 1.644-7.19 5.957-7.19a9.4 9.4 0 0 1 2.076.246M175.938 78.791c0-1.453-1.105-2.709-3.775-2.709-4.555 0-7.25 4.161-7.25 8.766 0 2.807 1.483 3.915 4.421 3.915a12.5 12.5 0 0 0 4.448-.739v-1.526a10 10 0 0 1-3.721.739c-2.264 0-3.073-.542-3.073-2.635a9.5 9.5 0 0 1 .163-1.6c5.931-.221 8.788-1.7 8.788-4.21Zm-2.049.221c0 1.552-1.913 2.364-6.441 2.536.647-2.241 2.209-4.038 4.473-4.038 1.187 0 1.968.517 1.968 1.5M183.182 72.807a1.21 1.21 0 0 0-1.267-1.231 1.45 1.45 0 0 0-1.483 1.305 1.214 1.214 0 0 0 1.293 1.21 1.42 1.42 0 0 0 1.457-1.284m-1.077 3.5h-1.968l-2.831 13.466c-.567 2.659-1.187 3.518-3.1 3.518a5 5 0 0 1-1.564-.246l-.4 1.625a8.4 8.4 0 0 0 1.725.2c3.208 0 4.583-1.527 5.229-4.6l2.912-13.961M196.739 72.856l-.377-1.255a2.76 2.76 0 0 1-1.887.714c-1.456 0-2.184-1.157-3.909-1.157a3.85 3.85 0 0 0-2.452.911l.349 1.231a2.62 2.62 0 0 1 1.833-.714c1.536 0 2.049 1.158 3.936 1.158a4.4 4.4 0 0 0 2.507-.887Zm-.243 7.634c0-2.585-1.483-4.408-4.879-4.408-4.395 0-7.656 3.546-7.656 8.347 0 2.807 1.564 4.334 4.8 4.334a7.91 7.91 0 0 0 7.735-8.272Zm-2.129.172c0 3.891-2.507 6.525-5.256 6.525-2.184 0-3.073-1.083-3.073-3.1 0-3.324 2.129-6.452 5.283-6.452a2.7 2.7 0 0 1 3.047 3.029"/><path fill="#231f20" d="M211.265 76.304h-1.995l-.539 2.61c-.62 3.1-3.532 8.3-6.255 8.3-1.348 0-1.752-.936-1.321-3.029l1.645-7.879h-1.968l-1.752 8.3c-.54 2.61.349 4.186 2.776 4.186 2.884 0 5.123-2.733 6.389-5.492l.053.025a45 45 0 0 0-1.591 5.22h1.995l2.561-12.238M221.479 76.279a12 12 0 0 0-2.292-.2c-3.369 0-5.149 1.6-5.149 3.62 0 2.98 4.287 3.3 4.287 5.368 0 1.429-1.32 2.143-3.208 2.143a8.1 8.1 0 0 1-2.237-.345l-.355 1.726a14.6 14.6 0 0 0 2.239.172c3.665 0 5.633-1.9 5.633-3.915 0-2.782-4.287-3.225-4.287-5.343 0-1.133 1-1.97 2.885-1.97a6.8 6.8 0 0 1 2.129.3l.351-1.552M232.15 76.304h-3.855l.971-4.506-2.1.443-.836 4.063h-2.884l-.324 1.452h2.885l-1.482 7.092c-.567 2.709.108 3.891 2.776 3.891a13.3 13.3 0 0 0 2.424-.248l.08-1.576a8.3 8.3 0 0 1-1.913.2c-1.429 0-1.725-.567-1.293-2.61l1.4-6.747h3.826l.323-1.452"/><path fill="#231f20" fill-rule="evenodd" d="M238.395 72.807a1.21 1.21 0 0 0-1.267-1.231 1.423 1.423 0 0 0-1.455 1.305 1.19 1.19 0 0 0 1.267 1.206 1.4 1.4 0 0 0 1.455-1.28m-1.1 3.5h-1.97l-2.563 12.235h1.963l2.561-12.238"/><path fill="#231f20" d="m250.525 76.846-1.4-1.108-6.443 5.86 2.292-11.031h-1.968l-3.747 17.975h1.966l1.4-6.6 3.828 6.6h2.425l-4.205-6.722 5.851-4.974M264.085 76.304h-1.995l-.54 2.61c-.62 3.1-3.531 8.3-6.253 8.3-1.348 0-1.752-.936-1.321-3.029l1.645-7.879h-1.969l-1.752 8.3c-.539 2.61.351 4.186 2.777 4.186 2.884 0 5.121-2.733 6.389-5.492l.053.025a44 44 0 0 0-1.591 5.22h1.997l2.561-12.238M271.738 70.567h-1.968l-3.745 17.975h1.967l3.748-17.975"/><path fill="#231f20" fill-rule="evenodd" d="M278.154 72.807a1.21 1.21 0 0 0-1.267-1.231 1.424 1.424 0 0 0-1.456 1.305 1.19 1.19 0 0 0 1.267 1.206 1.4 1.4 0 0 0 1.456-1.28m-1.105 3.5h-1.968l-2.562 12.235h1.968l2.561-12.238M284.65 72.807a1.21 1.21 0 0 0-1.267-1.231 1.425 1.425 0 0 0-1.458 1.305 1.19 1.19 0 0 0 1.267 1.206 1.4 1.4 0 0 0 1.458-1.28m-1.105 3.5h-1.967l-2.561 12.235h1.968l2.56-12.238"/><path fill="#231f20" d="M294.408 76.304h-3.855l.971-4.506-2.1.443-.836 4.063h-2.884l-.324 1.452h2.885l-1.483 7.092c-.567 2.709.108 3.891 2.776 3.891a13.3 13.3 0 0 0 2.427-.246l.08-1.576a8.3 8.3 0 0 1-1.913.2c-1.429 0-1.725-.567-1.293-2.61l1.4-6.747h3.828l.323-1.452M193.925 34.266h114l.124.268c.043.089.255.492.583 1.066H193.925v-1.333"/><path fill="#003581" d="M335.09.491c.859.237 1.171.486 1.3 1.422 1.185 1.186.612 2.54 1.361 3.628.217.411-.387 1.16-.337 1.329 1.473 2.32-.605 3.866-.243 6.379-.265.483-.845.483-1.208.8 1.015 1.353 3.069.242 4.18 1.4 1.523 1.74 1.725 2.8 2.545 5.949.82 3.192 1.036 5.262 4.227 3.623 1.193-.5 2.405.073 2.433.563 0 .547.317.564.317 1.038 0 .317.173.346.26.663a4.5 4.5 0 0 1 .144 1.153 1.4 1.4 0 0 0 .029.49c.039.333.324.71-.635 1.1-.813.326-2.063 1.2-2.376.691-.287-.465-1.063-.241-1.285-1.2a6 6 0 0 1-1.044.247c-.617.092-2.543.26-3.02-.087-.343-.249-1.293-.345-2.247-4.748a40.1 40.1 0 0 1-.219 11.9c-.277 2.028-.895 3.914-1.353 5.871a15 15 0 0 1 .652 4.47 17.4 17.4 0 0 1-1.86 6.379c2.2 2.513 6.885 6.935 7.2 7.345a1.77 1.77 0 0 1 .473 1.227c0 .549-.425 7.616 1.725 10.564 1.669 3.667.652 6.621 2.32 9.375.507.749 1.039 1.933 2.077 1.981.992.2-.167 2.6 4.229 3.02l3.02-.362a1.06 1.06 0 0 1 .652.773c.363.894-.58 1.425-1.111 1.957-1.837 1.257-4.107 2.531-6.089 2.392a23 23 0 0 1-3.761-.31c-1.973-.343-.709-5.1-1.748-6.551a116 116 0 0 0-6.257-11.017c-1.547-2.755.8-7.031-2.2-9.085a18.7 18.7 0 0 0-4.132-3.02c-1.885 2.488-4.137 5.243-5.147 7.659-1.716 2.029-3.887-.068-6.5 1.208-3.407 1.208-7.369 1.015-10.509 2.851-.533.314-1.088.532-1.62.87a1.47 1.47 0 0 1 .169 1.378c-.435.58-1.353.652-1.619 1.45-.121.749-1.112 2.731-1.208 3.262-.217 1.087.339 2.658-.943 3.19-1.957-.024-3.055-3.164-2.9-3.6 1.737-5.828-1.473-7.587.411-10.969.555-.7 3-.169 4.132.7a14.7 14.7 0 0 0 4.977-1.909c1.764-1.015 2.873-2.374 5.1-3.551 1.619-.749 3.745.048 5.388-.459.917-2.344 1.88-6.684 2.629-9.1-3.677-4.743-2.005-11.014-.813-12.542.076-.186-1.248-.591-1.464-1.081a13.5 13.5 0 0 1-.663-1.72 48 48 0 0 1 .057-6.17 25.4 25.4 0 0 0-.833-9.324c-1.933.145-3.552.991-5.34 1.5-.339.1-.967.217-.823.749.629 1.4.825 2.653 1.644 4.3 1.256 1.836 3.617 4.875 4.627 6.277.332.806-.027 1.53.088 2.071-.148.858.141 1.873-.607 2.549-1.377.072-.339-2.223-1.788-1.86-.364-.1-.895.217-1.232-.218-1.088.677-1.04-.991-1.741-1.4a4.2 4.2 0 0 1 .169-2.61c-1.908-3.189-5.815-5.746-6.426-9.447a1.91 1.91 0 0 1 .339-1.788c1.024-1.223 4.335-3.166 7.2-4.47 1.06-.68 1.923-2.793 6.02-3.052a25 25 0 0 0 2.509-1.08c1.256-.507 2.653-1.323 2.9-2.948.3-1.964-3.073-3.649-2.851-7.3.464-6.957 7.684-5.122 8.65-4.76"/></svg>