<svg xmlns="http://www.w3.org/2000/svg" viewBox="0 0 60 38"><defs><style>.cls-1{fill:none;stroke:#a1abb2;stroke-miterlimit:10;}</style></defs><title>icn-seeding</title><g id="Layer_2" data-name="Layer 2"><g id="Layer_1-2" data-name="Layer 1"><line class="cls-1" x1="25.61" y1="5.49" x2="22.68" y2="11.34"/><line class="cls-1" x1="18.29" y1="5.49" x2="21.22" y2="11.34"/><line class="cls-1" x1="9.51" y1="5.49" x2="6.59" y2="11.34"/><line class="cls-1" x1="21.95" y1="15" x2="15" y2="21.22"/><line class="cls-1" x1="2.2" y1="5.49" x2="5.12" y2="11.34"/><line class="cls-1" x1="5.85" y1="15" x2="12.8" y2="21.22"/><line class="cls-1" x1="45.5" y1="25.2" x2="31.5" y2="33.2"/><line class="cls-1" x1="14.5" y1="25.2" x2="28.5" y2="33.2"/><path d="M23.41,2.78A3.59,3.59,0,0,1,25.32,0S27.8,1,27.8,2.78s-2,3.22-2,3.22S23.41,4.56,23.41,2.78Z"/><path d="M16.1,2.78A3.59,3.59,0,0,1,18,0s2.49,1,2.49,2.78-2,3.22-2,3.22S16.1,4.56,16.1,2.78Z"/><path d="M7.32,2.78A3.59,3.59,0,0,1,9.22,0s2.49,1,2.49,2.78S9.66,6,9.66,6,7.32,4.56,7.32,2.78Z"/><path d="M0,2.78A3.59,3.59,0,0,1,1.9,0S4.39,1,4.39,2.78,2.34,6,2.34,6,0,4.56,0,2.78Z"/><path d="M19.76,12.78A3.59,3.59,0,0,1,21.66,10s2.49,1,2.49,2.78-2,3.22-2,3.22S19.76,14.56,19.76,12.78Z"/><path d="M3.66,12.78A3.59,3.59,0,0,1,5.56,10s2.49,1,2.49,2.78S6,16,6,16,3.66,14.56,3.66,12.78Z"/><path d="M11.71,22.78A3.59,3.59,0,0,1,13.61,20s2.49,1,2.49,2.78S14.05,26,14.05,26,11.71,24.56,11.71,22.78Z"/><line class="cls-1" x1="57.8" y1="5.49" x2="54.88" y2="11.34"/><line class="cls-1" x1="50.49" y1="5.49" x2="53.41" y2="11.34"/><line class="cls-1" x1="41.71" y1="5.49" x2="38.78" y2="11.34"/><line class="cls-1" x1="54.15" y1="15" x2="47.2" y2="21.22"/><line class="cls-1" x1="34.39" y1="5.49" x2="37.32" y2="11.34"/><line class="cls-1" x1="38.05" y1="15" x2="45" y2="21.22"/><path d="M55.61,2.78A3.59,3.59,0,0,1,57.51,0S60,1,60,2.78,58,6,58,6,55.61,4.56,55.61,2.78Z"/><path d="M48.29,2.78A3.59,3.59,0,0,1,50.2,0s2.48,1,2.48,2.78-2,3.22-2,3.22S48.29,4.56,48.29,2.78Z"/><path d="M39.51,2.78A3.59,3.59,0,0,1,41.41,0S43.9,1,43.9,2.78s-2,3.22-2,3.22S39.51,4.56,39.51,2.78Z"/><path d="M32.2,2.78A3.59,3.59,0,0,1,34.1,0s2.49,1,2.49,2.78S34.54,6,34.54,6,32.2,4.56,32.2,2.78Z"/><path d="M52,12.78A3.59,3.59,0,0,1,53.85,10s2.49,1,2.49,2.78S54.29,16,54.29,16,52,14.56,52,12.78Z"/><path d="M35.85,12.78A3.59,3.59,0,0,1,37.76,10s2.48,1,2.48,2.78-2,3.22-2,3.22S35.85,14.56,35.85,12.78Z"/><path d="M43.9,22.78A3.59,3.59,0,0,1,45.8,20s2.49,1,2.49,2.78-2,3.22-2,3.22S43.9,24.56,43.9,22.78Z"/><path d="M27.8,33.78C27.8,32,30,30.7,30,30.7s2.2,1.3,2.2,3.08S30,36.7,30,36.7,27.8,35.56,27.8,33.78Z"/></g></g></svg>