<svg id="Layer_1" data-name="Layer 1" xmlns="http://www.w3.org/2000/svg" xmlns:xlink="http://www.w3.org/1999/xlink" viewBox="0 0 516 362"><defs><style>.cls-1{fill:none;}.cls-2{fill:#e6e6e6;}.cls-3{fill:#212121;}.cls-4{fill:url(#linear-gradient);}.cls-5{fill:#fff;opacity:0.2;}.cls-6{clip-path:url(#clip-path);}.cls-7{fill:#c63527;}</style><linearGradient id="linear-gradient" x1="15.2" y1="194.13" x2="15.2" y2="167.89" gradientTransform="translate(0.46 -0.65) rotate(0.14)" gradientUnits="userSpaceOnUse"><stop offset="0" stop-color="#545454"/><stop offset="1"/></linearGradient><clipPath id="clip-path"><rect class="cls-1" x="207.89" y="131" width="100" height="100"/></clipPath></defs><title>black-tablet</title><rect x="0.39" y="0.58" width="514.99" height="360.84" rx="23.41" ry="23.41" transform="translate(0.45 -0.64) rotate(0.14)"/><rect class="cls-2" x="47.59" y="22.62" width="420.6" height="316.78" transform="translate(0.45 -0.64) rotate(0.14)"/><circle class="cls-3" cx="22.25" cy="180.42" r="13.12"/><path class="cls-4" d="M21.8,167.3l-.06,26.23a13.12,13.12,0,1,1,.06-26.23Z"/><circle class="cls-5" cx="492.63" cy="181.86" r="2.45"/><g class="cls-6"><g class="cls-6"><path class="cls-7" d="M283.89,131h24v24h-.16a24,24,0,0,1-23.84-24"/><path class="cls-7" d="M267.89,131h-12c.17,28.76,23.23,52,51.66,52h.34V171h-.26c-21.87,0-39.61-17.88-39.74-40"/><path class="cls-7" d="M251.89,131h-12c.23,37.6,30.39,68,67.56,68h.44V187h-.37c-30.61,0-55.45-25-55.63-56"/><path class="cls-7" d="M235.89,131h-12c.28,46.45,37.54,84,83.45,84h.55V203h-.47c-39.36,0-71.29-32.18-71.53-72"/><path class="cls-7" d="M219.89,131h-12c.33,55.3,44.69,100,99.35,100h.65V219h-.57c-48.11,0-87.14-39.34-87.43-88"/></g></g></svg>