<svg xmlns="http://www.w3.org/2000/svg" viewBox="0 0 89.1 60.52"><defs><style>.cls-1{fill:#fff;}</style></defs><title>EU-logo-white</title><g id="Layer_2" data-name="Layer 2"><g id="Layer_1-2" data-name="Layer 1"><path class="cls-1" d="M0,0V60.52H89.1V0ZM87.39,58.78H1.71V1.66H87.39Z"/><polygon class="cls-1" points="42.72 14.1 44.53 12.79 46.34 14.1 45.65 11.97 47.49 10.65 45.23 10.65 44.53 8.49 43.84 10.65 41.58 10.65 43.41 11.97 42.72 14.1"/><polygon class="cls-1" points="33.37 16.62 35.18 15.3 36.98 16.62 36.3 14.48 38.13 13.16 35.87 13.16 35.18 11 34.48 13.17 32.22 13.16 34.06 14.48 33.37 16.62"/><polygon class="cls-1" points="28.33 17.86 27.64 20.03 25.38 20.02 27.21 21.34 26.52 23.48 28.33 22.16 30.14 23.48 29.45 21.34 31.29 20.02 29.02 20.02 28.33 17.86"/><polygon class="cls-1" points="25.82 31.5 27.63 32.82 26.94 30.69 28.77 29.37 26.51 29.37 25.82 27.21 25.13 29.37 22.86 29.37 24.7 30.69 24.01 32.82 25.82 31.5"/><polygon class="cls-1" points="29.02 38.74 28.33 36.58 27.64 38.74 25.38 38.74 27.21 40.06 26.52 42.19 28.33 40.87 30.14 42.19 29.45 40.06 31.29 38.74 29.02 38.74"/><polygon class="cls-1" points="35.88 45.6 35.19 43.44 34.5 45.6 32.23 45.6 34.07 46.92 33.38 49.05 35.19 47.73 37 49.05 36.31 46.92 38.15 45.6 35.88 45.6"/><polygon class="cls-1" points="45.23 48.08 44.53 45.92 43.84 48.09 41.58 48.08 43.41 49.4 42.73 51.54 44.53 50.22 46.34 51.54 45.65 49.4 47.49 48.08 45.23 48.08"/><polygon class="cls-1" points="54.57 45.6 53.88 43.44 53.18 45.6 50.92 45.6 52.76 46.92 52.07 49.05 53.88 47.73 55.69 49.05 55 46.92 56.83 45.6 54.57 45.6"/><polygon class="cls-1" points="61.43 38.74 60.74 36.58 60.04 38.74 57.78 38.74 59.62 40.06 58.93 42.19 60.74 40.87 62.54 42.19 61.85 40.06 63.69 38.74 61.43 38.74"/><polygon class="cls-1" points="66.18 29.34 63.91 29.34 63.22 27.18 62.53 29.34 60.26 29.34 62.1 30.66 61.41 32.8 63.22 31.47 65.03 32.8 64.34 30.66 66.18 29.34"/><polygon class="cls-1" points="58.93 23.45 60.74 22.13 62.54 23.45 61.85 21.32 63.69 20 61.43 20 60.74 17.84 60.04 20 57.78 20 59.62 21.32 58.93 23.45"/><polygon class="cls-1" points="53.9 11.01 53.21 13.17 50.95 13.16 52.78 14.49 52.1 16.62 53.91 15.3 55.71 16.62 55.02 14.49 56.86 13.16 54.6 13.16 53.9 11.01"/></g></g></svg>