<svg xmlns="http://www.w3.org/2000/svg" viewBox="0 0 50.21 45.2"><defs><style>.cls-1{fill:none;stroke:#000;stroke-linecap:square;stroke-miterlimit:10;stroke-width:2px;}</style></defs><title>icn-finishline</title><g id="Layer_2" data-name="Layer 2"><g id="Layer_1-2" data-name="Layer 1"><path d="M45.3,36.82l-.64-4.17a17.94,17.94,0,0,0-.36-2.34c0-1.31-.28-1-.72-2.11l-.09.12a1.78,1.78,0,0,0-.28-.32s-5.6-6.6-10.4-8.87c-1-.45-1.35-1.05-1.87-1.06l-1.13-.47c-1.45-.36-2.94,1.75-3.87,2.76L21,26l-10.15.33c-1.38,0-2.67.8-2.67,2.17s1.16,1.77,2.53,1.77l12,.73a2.46,2.46,0,0,0,1.8-.78,2.27,2.27,0,0,0,1-.58l6.06-5.37,4.76,4a10.89,10.89,0,0,1,3.64,5l.16,0-.16.25A35.59,35.59,0,0,0,40.67,38l.41,4.7a2.5,2.5,0,0,0,2.5,2.5l1.27-.75C46.39,43,45.3,38.19,45.3,36.82Z"/><circle cx="46.71" cy="3.5" r="3.5"/><path d="M44,10.28A4.28,4.28,0,0,0,39.75,6h-.1l-.21,0-16.36.8c-1.38,0-3.69.33-3.69,1.7s1.11,1.43,2.49,1.43l12,1.07-3.15,4.53,6.62,3.92,5.09-5.72-.06-.06A4.24,4.24,0,0,0,44,10.28Z"/><path class="cls-1" d="M28.88,15.6A10.18,10.18,0,0,0,22.21,14c-3.91.46-5.82,2.23-9.09,4.14S9.27,20.91,6.54,21s-2.69-1-3.6-1.64a7.09,7.09,0,0,1-1.55-1.54"/><path class="cls-1" d="M25,20c-1.36-.27-3.36-.45-5-1.82a18.18,18.18,0,0,1-4-4l-1.64-2.73"/></g></g></svg>