<svg xmlns="http://www.w3.org/2000/svg" viewBox="0 0 45 43"><defs><style>.cls-1{fill:none;stroke:#000;stroke-miterlimit:10;}</style></defs><title>icn-data_1</title><g id="Layer_2" data-name="Layer 2"><g id="Layer_1-2" data-name="Layer 1"><line class="cls-1" y1="0.5" x2="31" y2="0.5"/><line class="cls-1" y1="2.5" x2="18" y2="2.5"/><line class="cls-1" y1="4.5" x2="42" y2="4.5"/><line class="cls-1" y1="6.5" x2="36" y2="6.5"/><line class="cls-1" y1="8.5" x2="22" y2="8.5"/><line class="cls-1" y1="10.5" x2="29" y2="10.5"/><line class="cls-1" y1="12.5" x2="33" y2="12.5"/><line class="cls-1" y1="14.5" x2="15" y2="14.5"/><line class="cls-1" y1="16.5" x2="25" y2="16.5"/><line class="cls-1" y1="18.5" x2="41" y2="18.5"/><line class="cls-1" y1="20.5" x2="35" y2="20.5"/><line class="cls-1" y1="22.5" x2="25" y2="22.5"/><line class="cls-1" y1="24.5" x2="15" y2="24.5"/><line class="cls-1" y1="26.5" x2="38" y2="26.5"/><line class="cls-1" y1="28.5" x2="35" y2="28.5"/><line class="cls-1" y1="30.5" x2="45" y2="30.5"/><line class="cls-1" y1="32.5" x2="41" y2="32.5"/><line class="cls-1" y1="34.5" x2="25" y2="34.5"/><line class="cls-1" y1="36.5" x2="35" y2="36.5"/><line class="cls-1" y1="38.5" x2="15" y2="38.5"/><line class="cls-1" y1="40.5" x2="41" y2="40.5"/><line class="cls-1" y1="42.5" x2="35" y2="42.5"/></g></g></svg>