<svg xmlns="http://www.w3.org/2000/svg" viewBox="0 0 28 37"><defs><style>.cls-1,.cls-4{fill:#fff;}.cls-1,.cls-2,.cls-3{stroke:#000;stroke-miterlimit:10;}.cls-1{stroke-width:2px;}.cls-2,.cls-3{fill:none;}.cls-3{stroke-linecap:square;}</style></defs><title>icn-checklist</title><g id="Layer_2" data-name="Layer 2"><g id="Layer_1-2" data-name="Layer 1"><rect class="cls-1" x="1" y="3" width="26" height="33"/><line class="cls-2" x1="11" y1="10.5" x2="24" y2="10.5"/><line class="cls-2" x1="11" y1="15.5" x2="24" y2="15.5"/><line class="cls-2" x1="11" y1="20.5" x2="24" y2="20.5"/><line class="cls-2" x1="11" y1="25.5" x2="24" y2="25.5"/><line class="cls-2" x1="11" y1="30.5" x2="24" y2="30.5"/><line class="cls-3" x1="5.5" y1="10.08" x2="6.5" y2="11.08"/><line class="cls-3" x1="8.5" y1="9.08" x2="6.5" y2="11.08"/><line class="cls-3" x1="5.5" y1="15.08" x2="6.5" y2="16.08"/><line class="cls-3" x1="8.5" y1="14.08" x2="6.5" y2="16.08"/><line class="cls-3" x1="5.5" y1="20.08" x2="6.5" y2="21.08"/><line class="cls-3" x1="8.5" y1="19.08" x2="6.5" y2="21.08"/><line class="cls-3" x1="5.5" y1="25.08" x2="6.5" y2="26.08"/><line class="cls-3" x1="8.5" y1="24.08" x2="6.5" y2="26.08"/><line class="cls-3" x1="5.5" y1="30.08" x2="6.5" y2="31.08"/><line class="cls-3" x1="8.5" y1="29.08" x2="6.5" y2="31.08"/><rect class="cls-4" x="9" y="1" width="10" height="4"/><path d="M20,6H8V0H20ZM9,5H19V2H9Z"/></g></g></svg>