<svg xmlns="http://www.w3.org/2000/svg" viewBox="0 0 49 35.94"><defs><style>.cls-1{fill:#fff;}.cls-2{fill:#101820;}</style></defs><title>icn-customise</title><g id="Layer_2" data-name="Layer 2"><g id="Layer_1-2" data-name="Layer 1"><circle class="cls-1" cx="11.5" cy="9.78" r="7.5"/><circle class="cls-1" cx="37.5" cy="9.78" r="7.5"/><path class="cls-2" d="M0,8.39c1.52,0,2.17-.76,2.74-2.18A9.12,9.12,0,0,1,10.87.11c4.25-.36,7.42,1.47,9.55,5.14.14.25.27.5.44.82a7.14,7.14,0,0,1,7.28,0A10.06,10.06,0,0,1,35.57.17,9.64,9.64,0,0,1,46.29,6.36a2.61,2.61,0,0,0,2.71,2v2.83c-1.52,0-2.22.73-2.75,2.18-1.53,4.19-5.66,6.54-10.32,6.1a9.76,9.76,0,0,1-8.33-8,3.1,3.1,0,0,0-3.14-2.85,3.15,3.15,0,0,0-3.09,2.92,9.85,9.85,0,0,1-8.3,7.94A9.6,9.6,0,0,1,2.75,13.4C2.23,12,1.53,11.18,0,11.22ZM44.26,9.84a6.9,6.9,0,1,0-6.84,6.89A6.93,6.93,0,0,0,44.26,9.84Zm-39.47,0A6.89,6.89,0,1,0,11.46,2.9,6.92,6.92,0,0,0,4.79,9.84Z"/><path class="cls-2" d="M24.54,31.5A12,12,0,0,1,10.47,35c-3-1.47-6.12-5.88-5.74-8.33.31.17.59.3.86.46a4.53,4.53,0,0,0,5.38,0c1.17-.84,2.28-1.75,3.44-2.6,3.66-2.69,6.49-2.55,9.84.45l.25.18c.58-.45,1.14-.94,1.75-1.36a5.88,5.88,0,0,1,6.53-.39A45.77,45.77,0,0,1,37,26.3c1.09.78,2.15,1.77,3.6,1.61a15,15,0,0,0,2.88-.84,5.56,5.56,0,0,0,.87-.45c.46,2.32-2.66,6.83-5.69,8.31A11.9,11.9,0,0,1,24.54,31.5Z"/></g></g></svg>