<svg xmlns="http://www.w3.org/2000/svg" viewBox="0 0 32 38"><defs><style>.cls-1{fill:#fff;stroke-miterlimit:10;}.cls-1,.cls-2,.cls-3{stroke:#000;}.cls-1,.cls-2{stroke-width:2px;}.cls-2,.cls-3{fill:none;stroke-linejoin:bevel;}.cls-4{font-size:11px;font-family:ProximaSoft-Regular, Proxima Soft;letter-spacing:-0.02em;}.cls-5{letter-spacing:-0.01em;}</style></defs><title>icn-shirt</title><g id="Layer_2" data-name="Layer 2"><g id="Layer_1-2" data-name="Layer 1"><path class="cls-1" d="M28,10.35V1H22.19a9.1,9.1,0,0,1-6.54,2.77A9.07,9.07,0,0,1,9.12,1H4v9.35a8.14,8.14,0,0,1-3,6.46V37H31V16.81A8.14,8.14,0,0,1,28,10.35Z"/><path class="cls-2" d="M22,6.14V1.08L21.66.93A9.31,9.31,0,0,1,15.5,3.26,9.31,9.31,0,0,1,9.34.93L9,1.08V6.15a6.54,6.54,0,0,0,9.15,6A6.39,6.39,0,0,0,22,6.14Z"/><rect class="cls-3" x="7.5" y="16.5" width="17" height="11"/><text class="cls-4" transform="translate(9.64 25.77)">5<tspan class="cls-5" x="6.31" y="0">2</tspan></text></g></g></svg>