<svg xmlns="http://www.w3.org/2000/svg" viewBox="0 0 42 38"><defs><style>.cls-1{fill:#fff;}</style></defs><title>icn-brain</title><g id="Layer_2" data-name="Layer 2"><g id="Layer_1-2" data-name="Layer 1"><path class="cls-1" d="M30,21.19a2,2,0,0,0-.57-.07,6,6,0,0,0-3.3,1.26l-3.91,3.1-.55.41h0l-.28.2-.21.14-.61-.14a3.07,3.07,0,0,0-1,.3,4.28,4.28,0,0,1-1.78.47,5.69,5.69,0,0,1-4.36-2L13.15,24h0l-.27-3.08v-.1a4,4,0,0,1,1.19-2.6l.61-.38-.41-.66-.63.38A3.05,3.05,0,0,0,12.54,19l-.47,1.08-.86-.79a5,5,0,0,0-.75-.57L7.25,16.76l-.4.65L10,19.35a5.76,5.76,0,0,1,2.18,3l0,.11L12.32,24l-.87.58a7,7,0,0,1-2.82.67A5.54,5.54,0,0,1,4.7,23.64l-.09-.09-.1-.05a4.93,4.93,0,0,1-2.92-4.42,4.61,4.61,0,0,1,.57-2.22l.21-.38-.21-.38a4.59,4.59,0,0,1-.57-2.22A5,5,0,0,1,5.71,9.05l.52-.11.09-.53a5.25,5.25,0,0,1,5.31-4.17,5.68,5.68,0,0,1,1.29.15l.54.12.3-.47a5.63,5.63,0,0,1,7.89-1.42l1,.46L21.14,4.44,20.5,5h0l-.07.06a5.18,5.18,0,0,1-2.7,1.11h-.22L16.62,6l-.12.75.92.14L18.56,7l-.32,1A4.91,4.91,0,0,0,18,10.21l.26,1.48.75-.13-.26-1.48A4.43,4.43,0,0,1,20,6.55l1-1c.12-.1.23-.19.33-.29l2-1.86.49.24a9.22,9.22,0,0,1,3.25-.6,8.33,8.33,0,0,1,8.39,6.57l.07.39.34.18a4.94,4.94,0,0,1,2.75,4.32,4.62,4.62,0,0,1-.77,2.54l-.23,1.1,0,0-2.65-2.66a7.26,7.26,0,0,1-1.74-3.73L33,10.29l-.67.08.17,1.53a6.84,6.84,0,0,0,.56,1.94l.53,1.33L32.17,15l-.36,0-4.43-.21,0,.68,4.44.21a6.83,6.83,0,0,1,3.86,1.59L37,18.59l.11.27a4.48,4.48,0,0,1,.2.69l-.26,1.22a4.91,4.91,0,0,1-3,4.4l-.28.13-.12.28a3.46,3.46,0,0,1-2.56,2l-.9.18,1.63,4.68-.73.37A33.41,33.41,0,0,0,27,27.86l-.2-.2-.29,0a7.42,7.42,0,0,1-3-.92l-1.32-.3,4.44-3.51a5.32,5.32,0,0,1,2.86-1.12,1.73,1.73,0,0,1,.42.05l.79.21.18-.65Z"/><path d="M38.4,19l.15-.17a6.36,6.36,0,0,0,1.66-4.25,6.43,6.43,0,0,0-3.12-5.46L37,9l0-.16a9.93,9.93,0,0,0-9.84-7.34A10.69,10.69,0,0,0,23.74,2l-.23.08-.18-.17a7.26,7.26,0,0,0-10.45.64l-.15.17-.22,0a6.51,6.51,0,0,0-.88-.06,6.92,6.92,0,0,0-6.7,4.77l-.07.21-.2.07A6.57,6.57,0,0,0,0,13.88a6.23,6.23,0,0,0,.5,2.44l.07.16-.07.16A6.3,6.3,0,0,0,0,19.08a6.5,6.5,0,0,0,3.66,5.77l0,0,0,0a7.27,7.27,0,0,0,4.94,1.92A7.13,7.13,0,0,0,12,26.05l.28-.14.22.23a7.28,7.28,0,0,0,8.85,1.38l.24-.13.22.16A8.87,8.87,0,0,0,26,29.18l.14,0,.1.1A35.47,35.47,0,0,1,31,35.55l.45.75,2.75-2-1.9-5.45.34-.16a5.09,5.09,0,0,0,2.3-2.12l.06-.11.11-.06a6.51,6.51,0,0,0,3.55-5.71,6.3,6.3,0,0,0-.2-1.56ZM30,21.19a2,2,0,0,0-.57-.07,6,6,0,0,0-3.3,1.26l-3.91,3.1-.55.41h0l-.28.2-.21.14-.61-.14a3.07,3.07,0,0,0-1,.3,4.28,4.28,0,0,1-1.78.47,5.69,5.69,0,0,1-4.36-2L13.15,24h0l-.27-3.08v-.1a4,4,0,0,1,1.19-2.6l.61-.38-.41-.66-.63.38A3.05,3.05,0,0,0,12.54,19l-.47,1.08-.86-.79a5,5,0,0,0-.75-.57L7.25,16.76l-.4.65L10,19.35a5.76,5.76,0,0,1,2.18,3l0,.11L12.32,24l-.87.58a7,7,0,0,1-2.82.67A5.54,5.54,0,0,1,4.7,23.64l-.09-.09-.1-.05a4.93,4.93,0,0,1-2.92-4.42,4.61,4.61,0,0,1,.57-2.22l.21-.38-.21-.38a4.59,4.59,0,0,1-.57-2.22A5,5,0,0,1,5.71,9.05l.52-.11.09-.53a5.25,5.25,0,0,1,5.31-4.17,5.68,5.68,0,0,1,1.29.15l.54.12.3-.47a5.63,5.63,0,0,1,7.89-1.42l1,.46L21.14,4.44,20.5,5h0l-.07.06a5.18,5.18,0,0,1-2.7,1.11h-.22L16.62,6l-.12.75.92.14L18.56,7l-.32,1A4.91,4.91,0,0,0,18,10.21l.26,1.48.75-.13-.26-1.48A4.43,4.43,0,0,1,20,6.55l1-1c.12-.1.23-.19.33-.29l2-1.86.49.24a9.22,9.22,0,0,1,3.25-.6,8.33,8.33,0,0,1,8.39,6.57l.07.39.34.18a4.94,4.94,0,0,1,2.75,4.32,4.62,4.62,0,0,1-.77,2.54l-.23,1.1,0,0-2.65-2.66a7.26,7.26,0,0,1-1.74-3.73L33,10.29l-.67.08.17,1.53a6.84,6.84,0,0,0,.56,1.94l.53,1.33L32.17,15l-.36,0-4.43-.21,0,.68,4.44.21a6.83,6.83,0,0,1,3.86,1.59L37,18.59l.11.27a4.48,4.48,0,0,1,.2.69l-.26,1.22a4.91,4.91,0,0,1-3,4.4l-.28.13-.12.28a3.46,3.46,0,0,1-2.56,2l-.9.18,1.63,4.68-.73.37A33.41,33.41,0,0,0,27,27.86l-.2-.2-.29,0a7.42,7.42,0,0,1-3-.92l-1.32-.3,4.44-3.51a5.32,5.32,0,0,1,2.86-1.12,1.73,1.73,0,0,1,.42.05l.79.21.18-.65Z"/></g></g></svg>