<svg xmlns="http://www.w3.org/2000/svg" viewBox="0 0 45 71"><defs><style>.cls-1,.cls-3{fill:#fff;}.cls-2{fill:none;}.cls-2,.cls-3{stroke:#000;stroke-miterlimit:10;}</style></defs><title>icn-flags</title><g id="Layer_2" data-name="Layer 2"><g id="Layer_1-2" data-name="Layer 1"><rect class="cls-1" x="2" y="1" width="30" height="17"/><path d="M31,2V17H3V2H31m2-2H1V19H33V0Z"/><line class="cls-2" x1="1.5" y1="9.5" x2="32.5" y2="9.5"/><line class="cls-2" x1="17.5" y1="0.5" x2="16.5" y2="18.5"/><line class="cls-2" x1="1.5" y1="0.5" x2="32.5" y2="18.5"/><line class="cls-2" x1="32.5" y1="0.5" x2="1.5" y2="18.5"/><rect class="cls-1" x="14" y="14" width="30" height="17"/><path d="M43,15V30H15V15H43m2-2H13V32H45V13Z"/><line class="cls-2" x1="13.5" y1="22.5" x2="45" y2="22.5"/><rect class="cls-1" x="2" y="27" width="30" height="17"/><path d="M31,28V43H3V28H31m2-2H1V45H33V26Z"/><line class="cls-2" x1="21.5" y1="26.5" x2="21.5" y2="44.5"/><line class="cls-2" x1="11.5" y1="26.5" x2="11.5" y2="44.5"/><rect class="cls-1" x="14" y="40" width="30" height="17"/><path d="M43,41V56H15V41H43m2-2H13V58H45V39Z"/><line class="cls-2" x1="13.5" y1="48.5" x2="45" y2="48.5"/><circle class="cls-3" cx="28.5" cy="48.5" r="5"/><rect class="cls-1" x="1" y="53" width="30" height="17"/><path d="M30,54V69H2V54H30m2-2H0V71H32V52Z"/><rect class="cls-3" x="1.5" y="53.5" width="10" height="8"/></g></g></svg>