<svg xmlns="http://www.w3.org/2000/svg" viewBox="0 0 104 32.35"><defs><style>.cls-1,.cls-3{fill:#fff;}.cls-2{fill:none;}.cls-2,.cls-3{stroke:#000;stroke-miterlimit:10;}</style></defs><title>icn-flag-horizontal</title><g id="Layer_2" data-name="Layer 2"><g id="Layer_1-2" data-name="Layer 1"><rect class="cls-1" x="1" y="1.35" width="30" height="17"/><path d="M30,2.35v15H2v-15H30m2-2H0v19H32V.35Z"/><line class="cls-2" x1="1" y1="9.85" x2="32" y2="9.85"/><line class="cls-2" x1="16.5" y1="0.43" x2="15.5" y2="18.43"/><line class="cls-2" x1="0.5" y1="0.43" x2="31.5" y2="18.43"/><line class="cls-2" x1="31.5" y1="0.43" x2="0.5" y2="18.43"/><rect class="cls-1" x="19" y="14.35" width="30" height="17"/><path d="M48,15.35v15H20v-15H48m2-2H18v19H50v-19Z"/><line class="cls-2" x1="19" y1="22.85" x2="50" y2="22.85"/><rect class="cls-1" x="37" y="1.35" width="30" height="17"/><path d="M66,2.35v15H38v-15H66m2-2H36v19H68V.35Z"/><line class="cls-2" x1="56.5" y1="0.35" x2="56.5" y2="18.35"/><line class="cls-2" x1="46.5" y1="0.35" x2="46.5" y2="18.35"/><rect class="cls-1" x="73" y="1.35" width="30" height="17"/><path d="M102,2.35v15H74v-15h28m2-2H72v19h32V.35Z"/><line class="cls-2" x1="73" y1="9.85" x2="104" y2="9.85"/><circle class="cls-3" cx="87.5" cy="9.85" r="5"/><rect class="cls-1" x="55" y="14.35" width="30" height="17"/><path d="M84,15.35v15H56v-15H84m2-2H54v19H86v-19Z"/><rect class="cls-3" x="55.5" y="14.85" width="10" height="8"/></g></g></svg>