<svg id="Layer_1" data-name="Layer 1" xmlns="http://www.w3.org/2000/svg" xmlns:xlink="http://www.w3.org/1999/xlink" viewBox="0 0 1366 528"><defs><style>.cls-1{fill:#c53527;}.cls-2{opacity:0.1;}.cls-3{fill:url(#linear-gradient);}.cls-4{fill:url(#linear-gradient-2);}.cls-5{fill:#be3326;}.cls-6{fill:#bc3325;}.cls-7{fill:url(#linear-gradient-3);}.cls-8{opacity:0.5;}.cls-9{fill:#fff;}.cls-20,.cls-21,.cls-22,.cls-23,.cls-24,.cls-25,.cls-26,.cls-9{opacity:0.2;}.cls-10{fill:#ebebeb;opacity:0.21;}.cls-11{fill:#c3c2c2;opacity:0.24;}.cls-12{fill:#afaeae;opacity:0.25;}.cls-13{fill:#9b999a;opacity:0.26;}.cls-14{fill:#878585;opacity:0.27;}.cls-15{fill:#737171;opacity:0.28;}.cls-16{fill:#5f5c5d;opacity:0.29;}.cls-17{fill:#4b4849;opacity:0.31;}.cls-18{fill:#373434;opacity:0.32;}.cls-19{opacity:0.33;}.cls-20{fill:#dbdbdb;}.cls-21{fill:#b6b6b6;}.cls-22{fill:#929292;}.cls-23{fill:#6d6d6d;}.cls-24{fill:#494949;}.cls-25{fill:#242424;}</style><linearGradient id="linear-gradient" x1="696.77" y1="461.49" x2="696.77" y2="-20.19" gradientUnits="userSpaceOnUse"><stop offset="0" stop-color="#fff" stop-opacity="0.8"/><stop offset="1" stop-color="#fff" stop-opacity="0.2"/></linearGradient><linearGradient id="linear-gradient-2" x1="133.53" y1="83.3" x2="133.53" y2="390.94" gradientUnits="userSpaceOnUse"><stop offset="0" stop-color="#fff" stop-opacity="0.5"/><stop offset="1" stop-color="#fff" stop-opacity="0.1"/></linearGradient><linearGradient id="linear-gradient-3" x1="491.28" y1="533" x2="491.28" y2="82" gradientUnits="userSpaceOnUse"><stop offset="0.28" stop-opacity="0.8"/><stop offset="1" stop-opacity="0.2"/></linearGradient></defs><title>track-header</title><rect class="cls-1" x="-4" y="-5" width="1376" height="541"/><g class="cls-2"><path class="cls-3" d="M-205.83,81.87c10,0,132.12.28,237.24.46,8.64,0,17.68,0,27.05,0l21.82,0c9.7,0,20,0,30.76,0h6l6.07,0c31.18-.08,76.44-.4,128.18-.2,27.13,0,57.81,0,90.38.28h33.77c13.45,0,27.48,0,41.91,0H495.2c90.49,0,215.05,5.78,341.09,23.21,124.18,17.19,227.58,51.57,369,121.42,104.19,51.49,308.67,179.68,394.76,234.34V-20.19H-206.46V81.88Z"/><path class="cls-4" d="M45.73,309.09c84.36-28.46,189.34-63.89,274-97,97.88-38.31,149.52-66.35,153.5-83.33a8,8,0,0,0-2.43-7.9c-16.42-16.41-89.31-27.56-216.65-33.12C204.4,85.52,152.67,84.47,105.64,84l-216.45-.19-71.77-.48-23.88,0V390.94c97.79-31.08,180.82-57.7,211-67.94C17.57,318.59,31.36,313.94,45.73,309.09Z"/></g><path class="cls-1" d="M908.86,303.64c-9.25-64.78-31.57-111.86-71.34-143.38-34.09-27-74-38.91-115.35-49.65C651.09,92.13,512.42,86.05,388.62,84.2c105.88,2.89,212.74,9.68,272.29,25.16,43.7,11.37,69.3,29,78.67,55.2,6.15,17.2,6.68,38.08-1.34,62.39-8.79,26.62-25.22,59-51.13,94.58-36.89,50.66-126.87,173.3-149,203.47H915.35C915.76,493.45,917,360.33,908.86,303.64Z"/><path class="cls-1" d="M280.79,294.86c63.61-28.62,129.38-58.22,179.66-85.49,56.47-30.61,85.51-54.16,88.77-72,1.11-6-.71-11.33-5.57-16.18-18-18-92.12-26.94-220.31-32.87-34.54-1.59-70.11-2.67-104.49-3.4,12.56.41,25.1.88,37.54,1.43C383.65,91.92,455.13,103,473.14,119.3a9.43,9.43,0,0,1,2.93,9.65c-4.17,17.81-52.5,45.66-151.94,84.58C239.77,246.55,134,283,50,311.31,35.67,316.13,22,321,9.07,325.36c-30.45,10.33-113.86,37.22-211.53,68.49V505.07c116.55-49.88,362.73-155.46,429-185.67C244.22,311.32,262.81,303,280.79,294.86Z"/><path class="cls-1" d="M635.91,143.54c-1.13-10.74-9.14-19.23-23.81-25.23-45.44-18.59-126.91-25.6-242-30.68-36.05-1.59-72.39-2.43-107.07-2.9,20.21.6,40.49,1.34,60.42,2.27,105,4.85,199.38,12.14,221.52,32.84,5.43,5.08,7.83,11,6.62,17.64-7.51,41-138.95,101.8-267.77,159.77-18,8.08-36,15.56-53.68,23.64C161.89,352.05-93,463-202.46,510.51V525h346C191.24,493.66,394.38,360.12,454,319.48,581.58,232.48,639.39,176.58,635.91,143.54Z"/><path class="cls-1" d="M1039.87,225c-53.43-42-105.26-70.95-168.45-91.16-58.52-18.71-120.06-27-183.21-35.9C612.16,87.23,516.47,84.45,432.42,83.91c111.38,2.62,227,9.14,290.23,24.84,41.66,10.34,81.68,22.76,116.06,50,40.18,31.84,64.24,79.06,73.57,144.35,8.06,56.46,8,189.09,7.8,221.89h376.21c-11.55-17.11-42.42-61.84-83.87-113.36C1163.71,351.1,1095.79,269,1039.87,225Z"/><path class="cls-5" d="M734.94,226.51c7.88-23.89,8.84-44.52,2.83-61.31-9.13-25.54-34.5-43.4-77.54-54.59-72.88-19-216.82-24.86-342.93-26.54l-13.75.05c22.06.54,44.41,1.27,66.59,2.24,96.08,4.2,189.16,9.58,242.69,30.18,15.49,6,23.77,15.3,25,26.8,1.92,18.22-13.79,43.44-47.85,75.3-29.83,27.91-70.63,60-131.64,101.61C398.84,360.81,200.16,493.42,152.81,525H530.12C553,494.5,646,370.37,682.92,319.71,708.71,284.3,726.21,252.94,734.94,226.51Z"/><path class="cls-6" d="M835.32,107.53c-124.44-17.57-247-23.93-336.85-24C564,85,631.65,88.57,688.39,96.58,751.63,105.51,813.11,114,872,132.05c63.7,19.49,117.91,49.34,171.53,91.47,31,24.31,86.38,76.34,174.75,186.16,42.06,52.27,76,98.4,88.36,115.32h289.2V465.75c-79.57-51.2-287.74-183.59-394.3-236.24C1061,160.07,958.68,125,835.32,107.53Z"/><path class="cls-7" d="M1199.76,228.53c131.77,65.11,420.13,253.09,423.09,255l7.49-1.39c-3-1.91-297.41-191.42-429.28-256.58-139.68-69-241.85-103-364.56-120C712,88.34,588.89,82.63,499.47,82.63H422.58c-14.26,0-28.12,0-41.41,0H347.79c-32.17-.27-62.49-.31-89.29-.27-51.13-.2-95.85.11-126.67.2h-12c-10.64,0-20.81,0-30.39,0l-21.56,0c-9.27,0-18.2,0-26.73,0C-62.67,82.27-183.35,82-193.22,82h-.62l0,1.41,23.63,0,70.92.47,213.87.19c46.47.48,97.59,1.51,146.78,3.66,125.83,5.5,197.86,16.51,214.08,32.73a7.84,7.84,0,0,1,2.4,7.8c-3.93,16.79-55,44.49-151.67,82.35-83.69,32.75-187.43,67.76-270.78,95.88-14.2,4.79-27.83,9.39-40.69,13.75C-75.48,350.83-642.06,529-647.77,530.82l9.9,2.18c5.72-1.8,563.83-178.75,654-209.33,12.86-4.36,26.4-9.16,40.59-13.95,83.38-28.13,188.39-64.28,272.13-97.05,98.7-38.63,146.68-66.28,150.82-83.95a9.38,9.38,0,0,0-2.91-9.58C458.87,102.93,387.92,92,261.6,86.44c-12.34-.54-24.8-1-37.26-1.41,34.12.71,69.44,1.79,103.72,3.37C455.3,94.29,528.87,103.16,546.74,121c4.82,4.82,6.62,10.08,5.53,16.07-3.25,17.69-32.07,41.06-88.12,71.46C414.25,235.61,349,265,285.82,293.4c-17.84,8-36.29,16.33-53.89,24.36-86.6,39.5-483.22,208.85-487.21,210.56l11.33.87c4-1.7,392.92-170.44,479.54-210,17.6-8,35.44-15.44,53.28-23.47C416.74,238.23,547.2,177.85,554.65,137.19c1.21-6.57-1.18-12.47-6.57-17.51-22-20.55-115.61-27.78-219.88-32.61-19.78-.91-39.91-1.65-60-2.24,34.42.46,70.49,1.3,106.28,2.88,114.2,5,195.07,12,240.17,30.45,14.55,6,22.5,14.38,23.63,25,3.45,32.79-53.93,88.28-180.58,174.64C390.88,363.42,142.08,526.75,139.58,528.4l9.11.16c2.51-1.64,246.49-164.37,313.35-210,60.56-41.29,101.06-73.15,130.67-100.86,33.81-31.62,49.4-56.65,47.49-74.74-1.2-11.41-9.42-20.69-24.8-26.61C562.27,96,469.88,90.62,374.51,86.44c-22-1-44.2-1.68-66.09-2.22l13.64,0c125.18,1.67,268.05,7.53,340.39,26.34,42.72,11.11,67.9,28.83,77,54.19,6,16.66,5,37.14-2.82,60.86-8.66,26.23-26,57.36-51.63,92.5-41.69,57.25-155.62,209-156.77,210.56l8.06-.06C537.4,527,647.43,377.13,689.13,319.87c25.71-35.31,42-67.46,50.74-93.88,8-24.13,7.44-44.86,1.34-61.93-9.3-26-34.71-43.51-78.09-54.78C604,93.91,498,87.17,392.86,84.3c122.88,1.84,260.52,7.87,331.07,26.21,41,10.67,80.66,22.46,114.49,49.28,39.48,31.29,61.63,78,70.82,142.32,9.11,63.74,6.36,224.82,6.34,226.45l4.74.64c0-1.63,1.43-163.73-7.7-227.62-9.25-64.8-33.14-111.67-73-143.28-34.13-27.05-73.85-39.37-115.2-49.63C661.6,93.09,546.89,86.61,436.33,84c83.42.54,178.4,3.3,253.89,14C752.9,106.82,814,115,872.07,133.6c62.72,20.06,114.17,48.82,167.2,90.49,55.51,43.61,122.92,125.13,171.27,185.22,52.4,65.12,87.77,119.33,88.17,119.88l10.29-.55c-.39-.55-40.2-56.11-92.63-121.27-87.71-109-142.74-160.66-173.45-184.79-53.23-41.82-107-71.44-170.27-90.79-58.46-17.89-119.48-26.34-182.25-35.2-56.32-8-123.43-11.49-188.51-13,89.15.1,210.83,6.41,334.34,23.85C958.68,124.74,1060.27,159.6,1199.76,228.53Z"/><g class="cls-8"><rect class="cls-9" x="1274" y="494" width="38" height="38"/><rect class="cls-10" x="1204.47" y="400.32" width="35.64" height="35.64"/><rect class="cls-11" x="1133.18" y="315.77" width="30.91" height="30.91"/><rect class="cls-12" x="1081.91" y="256.54" width="28.55" height="28.55"/><rect class="cls-13" x="1033" y="212.56" width="23.28" height="23.28"/><rect class="cls-14" x="990.93" y="184.37" width="19.63" height="19.63"/><rect class="cls-15" x="956" y="162.37" width="14.47" height="14.47"/><rect class="cls-16" x="924.15" y="147.56" width="11.44" height="11.44"/><rect class="cls-17" x="898.75" y="138.4" width="9.25" height="9.25"/><rect class="cls-18" x="878.01" y="131.16" width="8.99" height="8.99"/><rect class="cls-19" x="862" y="127" width="8" height="8"/></g><rect class="cls-9" x="550" y="477" width="25" height="25"/><rect class="cls-20" x="593" y="423" width="23" height="23"/><rect class="cls-21" x="624" y="382" width="21" height="21"/><rect class="cls-22" x="652" y="345" width="19" height="19"/><rect class="cls-23" x="676" y="313" width="17" height="17"/><rect class="cls-24" x="699" y="282" width="15" height="15"/><rect class="cls-25" x="718.31" y="250.94" width="13" height="13"/><rect class="cls-26" x="729.5" y="228.5" width="11" height="11"/></svg>