<svg id="Layer_1" data-name="Layer 1" xmlns="http://www.w3.org/2000/svg" xmlns:xlink="http://www.w3.org/1999/xlink" viewBox="0 0 2680 445"><defs><style>.cls-1{fill:#c53527;}.cls-2{opacity:0.1;}.cls-3{fill:url(#linear-gradient);}.cls-4{fill:url(#linear-gradient-2);}.cls-5{fill:#be3326;}.cls-6{fill:#bc3325;}.cls-7{fill:url(#linear-gradient-3);}.cls-8{opacity:0.5;}.cls-10,.cls-11,.cls-12,.cls-13,.cls-14,.cls-15,.cls-16,.cls-17,.cls-18,.cls-19,.cls-20,.cls-9{fill:#fff;}.cls-9{opacity:0;}.cls-10{opacity:0.27;}.cls-11{opacity:0.24;}.cls-12{opacity:0.21;}.cls-13{opacity:0.18;}.cls-14{opacity:0.15;}.cls-15{opacity:0.12;}.cls-16{opacity:0.09;}.cls-17{opacity:0.06;}.cls-18{opacity:0.03;}.cls-19{opacity:0.22;}.cls-20{opacity:0.2;}</style><linearGradient id="linear-gradient" x1="1336.77" y1="449" x2="1336.77" y2="-103.19" gradientUnits="userSpaceOnUse"><stop offset="0" stop-color="#fff" stop-opacity="0.8"/><stop offset="1" stop-color="#fff" stop-opacity="0.2"/></linearGradient><linearGradient id="linear-gradient-2" x1="558.76" y1="0.3" x2="558.76" y2="454" gradientUnits="userSpaceOnUse"><stop offset="0" stop-color="#fff" stop-opacity="0.5"/><stop offset="1" stop-color="#fff" stop-opacity="0.1"/></linearGradient><linearGradient id="linear-gradient-3" x1="1185.62" y1="450" x2="1185.62" y2="-0.7" gradientUnits="userSpaceOnUse"><stop offset="0.28" stop-opacity="0.8"/><stop offset="1" stop-opacity="0.2"/></linearGradient></defs><title>track-header2</title><rect class="cls-1" x="-12" y="-88" width="2706" height="541"/><g class="cls-2"><path class="cls-3" d="M-17.83-1.13c10,0,601.12.28,706.24.46,8.64,0,17.68,0,27.05,0l21.82,0c9.7,0,20,0,30.76,0h6l6.07,0c31.18-.08,76.44-.4,128.18-.2,27.13,0,57.81,0,90.38.28h33.77c13.45,0,27.48-.05,41.91,0h77.82c90.49,0,215,5.78,341.09,23.21,124.18,17.19,227.58,51.57,369,121.42C1966.43,195.64,2273.91,391.34,2360,446l325,3,7-552.19H-18.46V-1.12Z"/><path class="cls-4" d="M702.73,226.09c84.36-28.46,189.34-63.89,274-97,97.88-38.31,149.52-66.35,153.5-83.33a8,8,0,0,0-2.43-7.9c-16.42-16.41-89.31-27.56-216.65-33.12C861.4,2.52,809.67,1.47,762.64,1L546.19.8,474.42.32-13,.3-10,454c97.79-31.09,641.36-203.76,671.56-214C674.57,235.59,688.36,230.94,702.73,226.09Z"/></g><path class="cls-1" d="M1565.86,220.64c-9.25-64.78-31.57-111.86-71.34-143.38-34.09-27-74-38.91-115.35-49.65C1308.09,9.13,1169.42,3.05,1045.62,1.2c105.88,2.89,212.74,9.68,272.29,25.16,43.7,11.37,69.3,29,78.67,55.2,6.15,17.2,6.68,38.08-1.34,62.39-8.79,26.62-25.22,59-51.13,94.58-36.89,50.66-129,176.3-151.11,206.47h379C1572.41,413.45,1574,277.33,1565.86,220.64Z"/><path class="cls-1" d="M937.79,211.86c63.61-28.62,129.38-58.22,179.66-85.49,56.47-30.61,85.51-54.16,88.77-72,1.11-6-.71-11.33-5.57-16.18-18-18-92.12-26.94-220.31-32.87-34.54-1.59-70.11-2.67-104.49-3.4,12.56.41,25.1.88,37.54,1.43C1040.65,8.92,1112.13,20,1130.14,36.3a9.43,9.43,0,0,1,2.93,9.65c-4.17,17.81-52.5,45.66-151.94,84.58C896.77,163.55,791,200,707,228.31c-14.3,4.82-27.94,9.66-40.9,14.05C635.62,252.69,127.67,414.74,30,446H400c116.55-49.88,417.27-179.39,483.49-209.6C901.22,228.32,919.81,220,937.79,211.86Z"/><path class="cls-1" d="M1292.91,60.54c-1.13-10.74-9.14-19.23-23.81-25.23-45.44-18.59-126.91-25.6-242-30.68C991.09,3,954.75,2.2,920.07,1.73c20.21.6,40.49,1.34,60.42,2.27,105,4.85,199.38,12.14,221.52,32.84,5.43,5.08,7.83,11,6.62,17.64-7.51,41-139,101.8-267.77,159.77-18,8.08-36,15.56-53.68,23.64C818.89,269.05,522.49,398.44,413,446H795c47.71-31.34,256.38-168.88,316-209.52C1238.58,149.48,1296.39,93.58,1292.91,60.54Z"/><path class="cls-1" d="M1696.87,142c-53.43-42-105.26-70.95-168.45-91.16-58.52-18.71-120.06-27-183.21-35.9-76-10.74-171.74-13.52-255.79-14.06,111.38,2.62,226.95,9.14,290.23,24.84,41.66,10.34,81.68,22.76,116.06,50,40.18,31.84,64.24,79.06,73.57,144.35,8.06,56.46,7.88,192.09,7.72,224.89l378,1c-11.54-17.11-44.13-65.84-85.58-117.36C1820.71,268.1,1752.79,186,1696.87,142Z"/><path class="cls-5" d="M1391.94,143.51c7.88-23.89,8.84-44.52,2.83-61.31-9.13-25.54-34.5-43.4-77.54-54.59C1244.35,8.66,1100.41,2.75,974.3,1.07l-13.75.05c22.06.54,44.41,1.27,66.59,2.24,96.08,4.2,189.16,9.58,242.69,30.18,15.49,6,23.77,15.3,25,26.8,1.92,18.22-13.79,43.44-47.85,75.3-29.83,27.91-70.63,60-131.64,101.61C1055.84,277.81,851.35,415.42,804,447l380-1c22.87-30.5,119-158.63,155.92-209.29C1365.71,201.3,1383.21,169.94,1391.94,143.51Z"/><path class="cls-6" d="M1492.32,24.53C1367.88,7,1245.29.6,1155.47.51,1221,2,1288.65,5.57,1345.39,13.58,1408.63,22.51,1470.11,31,1529,49.05c63.7,19.49,117.91,49.34,171.53,91.47,31,24.31,86.38,76.34,174.75,186.16C1917.35,379,1954.69,430.08,1967,447l287,1,98-1c-93-62-386.89-247.84-493.45-300.49C1718,77.07,1615.68,42,1492.32,24.53Z"/><path class="cls-7" d="M1856.76,145.53C1988.53,210.64,2332,435,2348,447h14c-41-28-372.07-239.29-503.94-304.45-139.68-69-241.85-103-364.56-120C1369,5.34,1245.89-.37,1156.47-.37h-76.89c-14.26,0-28.12,0-41.41,0h-33.38C972.62-.64,942.3-.68,915.5-.64c-51.13-.2-95.85.11-126.67.2h-12c-10.64,0-20.81,0-30.39,0l-21.56,0c-9.27,0-18.2,0-26.73,0C594.33-.73,473.87,0,464,0h-1l.12.41,23.63,0L557.67.9l213.87.19C818,1.57,869.13,2.6,918.32,4.75c125.83,5.5,197.86,16.51,214.08,32.73a7.84,7.84,0,0,1,2.4,7.8c-3.93,16.79-55,44.49-151.67,82.35-83.69,32.75-187.43,67.76-270.78,95.88-14.2,4.79-27.83,9.39-40.69,13.75C581.52,267.83,14.94,446,9.23,447.82l9.9,2.18c5.72-1.8,563.83-178.75,654-209.33,12.86-4.36,26.4-9.16,40.59-13.95,83.38-28.13,188.39-64.28,272.13-97.05,98.7-38.63,146.68-66.28,150.82-83.95a9.38,9.38,0,0,0-2.91-9.58C1115.87,19.93,1044.92,9,918.6,3.44c-12.34-.54-24.8-1-37.26-1.41,34.12.71,69.44,1.79,103.72,3.37C1112.3,11.29,1185.87,20.16,1203.74,38c4.82,4.82,6.62,10.08,5.53,16.07-3.25,17.69-32.07,41.06-88.12,71.46C1071.25,152.61,1006,182,942.82,210.4c-17.84,8-36.29,16.33-53.89,24.36-86.6,39.5-483.22,208.85-487.21,210.56l11.33.87c4-1.7,392.92-170.44,479.54-210,17.6-8,35.44-15.44,53.28-23.47,127.87-57.53,258.33-117.91,265.78-158.57,1.21-6.57-1.18-12.47-6.57-17.51-22-20.55-115.61-27.78-219.88-32.61-19.78-.91-39.91-1.65-60-2.24,34.42.46,70.49,1.3,106.28,2.88,114.2,5,195.07,12,240.17,30.45,14.55,6,22.5,14.38,23.63,25,3.45,32.79-53.93,88.28-180.58,174.64-66.85,45.58-315.65,208.91-318.15,210.56l9.11.16c2.51-1.64,246.49-164.37,313.35-210,60.56-41.29,101.06-73.15,130.67-100.86,33.81-31.62,49.4-56.65,47.49-74.74-1.2-11.41-9.42-20.69-24.8-26.61C1219.27,13,1126.88,7.62,1031.51,3.44c-22-1-44.2-1.68-66.09-2.22l13.64-.05c125.18,1.67,268,7.53,340.39,26.34,42.72,11.11,67.9,28.83,77,54.19,6,16.66,5,37.14-2.82,60.86-8.66,26.23-26,57.36-51.63,92.5-41.69,57.25-155.62,209-156.77,210.56l8.06-.06c1.14-1.53,111.17-151.43,152.87-208.69,25.71-35.31,42-67.46,50.74-93.88,8-24.13,7.44-44.86,1.34-61.93-9.3-26-34.71-43.51-78.09-54.78C1261,10.91,1155,4.17,1049.86,1.3c122.88,1.84,260.52,7.87,331.07,26.21,41,10.67,80.66,22.46,114.49,49.28,39.48,31.29,61.63,78,70.82,142.32,9.11,63.74,6.36,224.82,6.34,226.45L1581,447c0-1.63-.87-163.11-10-227-9.26-64.81-34.52-113.09-74.39-144.7-34.13-27-73.85-39.37-115.2-49.63C1318.6,10.09,1203.89,3.61,1093.33,1c83.42.54,178.4,3.3,253.89,14C1409.9,23.82,1471,32,1529.07,50.6c62.72,20.06,114.17,48.82,167.2,90.49,55.51,43.61,122.92,125.13,171.27,185.22,52.4,65.12,87.77,119.33,88.17,119.88l10.29-.55c-.39-.55-40.2-56.11-92.63-121.27-87.71-109-142.74-160.66-173.45-184.79-53.23-41.82-107-71.44-170.27-90.79-58.46-17.89-119.48-26.34-182.25-35.2C1291.08,5.64,1224,2.1,1158.89.61,1248,.71,1369.72,7,1493.23,24.46,1615.68,41.74,1717.27,76.6,1856.76,145.53Z"/><g class="cls-8"><rect class="cls-9" x="1931" y="411" width="38" height="38"/><rect class="cls-10" x="1861.47" y="317.32" width="35.64" height="35.64"/><rect class="cls-11" x="1790.18" y="232.77" width="30.91" height="30.91"/><rect class="cls-12" x="1738.91" y="173.54" width="28.55" height="28.55"/><rect class="cls-13" x="1690" y="129.56" width="23.28" height="23.28"/><rect class="cls-14" x="1647.93" y="101.37" width="19.63" height="19.63"/><rect class="cls-15" x="1613" y="79.37" width="14.47" height="14.47"/><rect class="cls-16" x="1581.15" y="64.56" width="11.44" height="11.44"/><rect class="cls-17" x="1555.75" y="55.4" width="9.25" height="9.25"/><rect class="cls-18" x="1535.01" y="48.16" width="8.99" height="8.99"/><rect class="cls-18" x="1519" y="44" width="8" height="8"/></g><rect class="cls-19" x="1207" y="394" width="25" height="25"/><rect class="cls-20" x="1250" y="340" width="23" height="23"/><rect class="cls-13" x="1281" y="299" width="21" height="21"/><rect class="cls-14" x="1309" y="262" width="19" height="19"/><rect class="cls-15" x="1333" y="230" width="17" height="17"/><rect class="cls-16" x="1356" y="199" width="15" height="15"/><rect class="cls-17" x="1375.31" y="167.94" width="13" height="13"/><rect class="cls-18" x="1386.5" y="145.5" width="11" height="11"/></svg>