<svg xmlns="http://www.w3.org/2000/svg" viewBox="0 0 45 44"><title>icn-stats</title><g id="Layer_2" data-name="Layer 2"><g id="Layer_1-2" data-name="Layer 1"><rect width="31" height="1"/><rect y="2" width="18" height="1"/><rect y="4" width="42" height="1"/><rect y="6" width="36" height="1"/><rect y="8" width="22" height="1"/><rect y="10" width="29" height="1"/><rect y="12" width="33" height="1"/><rect y="14" width="15" height="1"/><rect y="16" width="25" height="1"/><rect y="18" width="41" height="1"/><rect y="20" width="35" height="1"/><rect y="22" width="25" height="1"/><rect y="24" width="15" height="1"/><rect y="26" width="38" height="1"/><rect y="28" width="35" height="1"/><rect y="30" width="45" height="1"/><rect y="32" width="41" height="1"/><rect y="34" width="25" height="1"/><rect y="36" width="35" height="1"/><rect y="38" width="15" height="1"/><rect y="40" width="41" height="1"/><rect y="42" width="35" height="1"/></g></g></svg>