<svg xmlns="http://www.w3.org/2000/svg" viewBox="0 0 49 36"><defs><style>.cls-1{fill:#fff;stroke-width:2px;}.cls-1,.cls-2{stroke:#101820;stroke-miterlimit:10;}.cls-2{fill:none;}.cls-3{fill:#101820;}</style></defs><title>icn-control</title><g id="Layer_2" data-name="Layer 2"><g id="Layer_1-2" data-name="Layer 1"><rect class="cls-1" x="1" y="1" width="47" height="33"/><line class="cls-2" x1="6.5" y1="6" x2="6.5" y2="29"/><line class="cls-2" x1="12.5" y1="6" x2="12.5" y2="29"/><line class="cls-2" x1="18.5" y1="6" x2="18.5" y2="29"/><line class="cls-2" x1="24.5" y1="6" x2="24.5" y2="29"/><line class="cls-2" x1="30.5" y1="6" x2="30.5" y2="29"/><line class="cls-2" x1="36.5" y1="6" x2="36.5" y2="29"/><line class="cls-2" x1="42.5" y1="6" x2="42.5" y2="29"/><rect class="cls-3" x="4" y="18" width="5" height="4" rx="1.94" ry="1.94"/><rect class="cls-3" x="10" y="9" width="5" height="4" rx="1.94" ry="1.94"/><rect class="cls-3" x="16" y="13" width="5" height="4" rx="1.94" ry="1.94"/><rect class="cls-3" x="22" y="19" width="5" height="4" rx="1.94" ry="1.94"/><rect class="cls-3" x="28" y="23" width="5" height="4" rx="1.94" ry="1.94"/><rect class="cls-3" x="34" y="8" width="5" height="4" rx="1.94" ry="1.94"/><rect class="cls-3" x="40" y="12" width="5" height="4" rx="1.94" ry="1.94"/></g></g></svg>