<svg xmlns="http://www.w3.org/2000/svg" viewBox="0 0 63 74"><defs><style>.cls-1,.cls-5{fill:#fff;}.cls-1,.cls-2,.cls-3,.cls-4,.cls-5,.cls-6{stroke:#000;}.cls-1,.cls-2,.cls-4,.cls-5,.cls-6{stroke-miterlimit:10;}.cls-1,.cls-2,.cls-3,.cls-4{stroke-width:2px;}.cls-2,.cls-3,.cls-6{fill:none;}.cls-3{stroke-linecap:square;stroke-linejoin:bevel;}</style></defs><title>icn-results</title><g id="Layer_2" data-name="Layer 2"><g id="Layer_1-2" data-name="Layer 1"><polygon class="cls-1" points="41.21 52 41.21 42 21.21 42 21.21 62 1.21 62 1.21 72 21.21 72 41.21 72 61.21 72 61.21 52 41.21 52"/><line class="cls-2" x1="40.21" y1="4" x2="40.21" y2="11"/><polygon class="cls-3" points="40.21 5 39.21 5 38.21 2 40.21 2 40.21 5"/><path class="cls-4" d="M33.21,4.5c0,1.93-.57,2.5-2.5,2.5s-2.5-.57-2.5-2.5S28.77,1,30.71,1,33.21,2.57,33.21,4.5Z"/><line class="cls-2" x1="28.21" y1="26" x2="28.21" y2="41"/><line class="cls-2" x1="33.21" y1="27" x2="33.21" y2="41"/><rect x="33.21" y="39" width="4" height="2"/><rect x="25.21" y="39" width="5" height="2"/><path class="cls-1" d="M34.21,22V14a4,4,0,0,0-8,0V29h8V22Z"/><circle class="cls-5" cx="30.71" cy="16.5" r="2"/><line class="cls-6" x1="31.71" y1="14.5" x2="33.27" y2="11.14"/><line class="cls-6" x1="29.71" y1="15.5" x2="27.2" y2="11.17"/><line class="cls-2" x1="34.21" y1="11" x2="41.21" y2="11"/><line class="cls-6" x1="27.21" y1="22.5" x2="34.21" y2="22.5"/><line class="cls-6" x1="30.71" y1="26" x2="30.71" y2="29"/><path class="cls-4" d="M54.21,14.5c0,1.93-.57,2.5-2.5,2.5s-2.5-.57-2.5-2.5.56-3.5,2.5-3.5S54.21,12.57,54.21,14.5Z"/><line class="cls-2" x1="49.21" y1="36" x2="49.21" y2="51"/><line class="cls-2" x1="54.21" y1="37" x2="54.21" y2="51"/><rect x="54.21" y="49" width="4" height="2"/><rect x="45.21" y="49" width="5" height="2"/><path class="cls-1" d="M56.21,24c0-2.2-2.8-4-5-4a4,4,0,0,0-4,4v8a4.09,4.09,0,0,0,.14,1h-.14v6h9V33H56a2.83,2.83,0,0,0,.2-1Z"/><circle class="cls-5" cx="51.71" cy="25.5" r="2"/><line class="cls-6" x1="52.71" y1="24.5" x2="54.27" y2="21.14"/><line class="cls-6" x1="49.71" y1="23.5" x2="48.2" y2="21.17"/><line class="cls-6" x1="48.21" y1="32.5" x2="55.21" y2="32.5"/><line class="cls-6" x1="51.71" y1="39.5" x2="51.71" y2="36.5"/><path class="cls-4" d="M12.21,27.5c0,1.93-.57,2.5-2.5,2.5s-2.5-.57-2.5-2.5S7.77,24,9.71,24,12.21,25.57,12.21,27.5Z"/><line class="cls-2" x1="7.21" y1="47" x2="7.21" y2="61"/><line class="cls-2" x1="12.21" y1="48" x2="12.21" y2="61"/><rect x="12.21" y="59" width="4" height="2"/><rect x="5.21" y="59" width="5" height="2"/><path class="cls-1" d="M14.21,37c0-2.2-2.8-4-5-4a4,4,0,0,0-4,4v6a4.09,4.09,0,0,0,.14,1H5.21v6h9V44H14a2.83,2.83,0,0,0,.2-1Z"/><circle class="cls-5" cx="9.63" cy="39.42" r="2.08"/><line class="cls-6" x1="10.71" y1="37.5" x2="12.27" y2="34.14"/><line class="cls-6" x1="8.71" y1="37.5" x2="6.2" y2="34.17"/><line class="cls-2" x1="6.71" y1="32.5" x2="0.71" y2="38.5"/><line class="cls-2" x1="5.21" y1="42" x2="1.21" y2="38"/><line class="cls-6" x1="6.21" y1="44.5" x2="13.21" y2="44.5"/><line class="cls-6" x1="9.71" y1="48" x2="9.71" y2="50"/><rect x="7.21" y="30" width="3" height="2"/><rect x="29.21" y="8" width="3" height="1"/><rect x="50.21" y="18" width="3" height="1"/></g></g></svg>