<svg xmlns="http://www.w3.org/2000/svg" viewBox="0 0 66 62"><defs><style>.cls-1,.cls-3{fill:#fff;}.cls-2{fill:none;}.cls-2,.cls-3{stroke:#000;stroke-miterlimit:10;stroke-width:2px;}</style></defs><title>icn-global</title><g id="Layer_2" data-name="Layer 2"><g id="Layer_1-2" data-name="Layer 1"><circle class="cls-1" cx="32.5" cy="33.5" r="23.5"/><polygon points="43.7 19.9 43.75 20.26 43.21 20.38 43.13 21.15 43.79 21.15 44.66 21.07 45.1 20.53 44.63 20.35 44.37 20.05 43.98 19.41 43.79 18.52 43.05 18.66 42.84 18.98 42.84 19.34 43.2 19.58 43.7 19.9"/><polygon points="43.08 20.2 43.12 19.71 42.68 19.52 42.08 19.66 41.63 20.38 41.63 20.85 42.15 20.85 43.08 20.2"/><path d="M30.63,22.26l-.13.34h-.64v.33H30l0,.17.4,0,.24-.15.07-.31.32,0,.12-.26-.29-.06Z"/><polygon points="28.97 22.86 28.95 23.19 29.41 23.15 29.46 22.82 29.18 22.6 28.97 22.86"/><path d="M57,33.25c0-.72,0-1.43-.11-2.13a24,24,0,0,0-1.62-6.67L55.08,24a24.63,24.63,0,0,0-4.6-7.1l-.38-.4c-.36-.38-.74-.74-1.12-1.09a24.5,24.5,0,1,0,5.33,29.24,23.94,23.94,0,0,0,2-5.4c.12-.48.22-1,.31-1.45A25.14,25.14,0,0,0,57,33.5C57,33.41,57,33.33,57,33.25Zm-4.61-9.8.14-.15c.19.36.37.72.53,1.1h-.23l-.44.06Zm-3.54-4.27V18.09q.57.6,1.11,1.26l-.44.66L48,20l-.09-.32ZM19.29,16.46v0h.49l0-.17h.8v.35l-.23.31h-1.1v-.45Zm.78,1.09.54-.08a2,2,0,0,1,0,.49L19.5,18l-.21-.25Zm33.87,9.73H52.15l-1.09-.81-1.15.11v.7h-.37L49.15,27l-2-.51V25.2l-2.52.2-.78.42h-1l-.49-.05-1.21.68v1.27l-2.49,1.79.21.77h.5l-.13.73-.36.13V33L41,35.49H42l.06-.15h1.68l.48-.45h.95l.53.53,1.42.14-.19,1.89,1.58,2.79-.83,1.58,0,.75.66.65V45l.86,1.16v1.49h.74a22.48,22.48,0,0,1-38.13-23V24l.8-1c.28-.52.58-1,.9-1.54l0,.41L12.62,23q-.43.82-.81,1.68V26l.94.45v1.78l.89,1.53.73.11.09-.53L13.6,28l-.16-1.29h.5L14.15,28l1.24,1.81-.32.58.79,1.21,2,.49v-.32l.78.11-.07.56.61.12,1,.26,1.34,1.53,1.72.13.17,1.4-1.18.82L22.11,38l-.17.77,1.7,2.13.13.73s.62.17.69.17,1.38,1,1.38,1v3.84l.47.14L26,48.53l.79,1-.15,1.76,1,1.82L29,54.32l1.34,0,.13-.43-1-.83.05-.41.18-.51,0-.51-.67,0-.33-.42.55-.53.07-.4-.61-.18,0-.37.88-.14L31,49l.45-.82,1.4-1.79-.32-1.41L33,44.2l1.29,0,.87-.69.28-2.71,1-1.22.17-.78-.88-.29-.58-.95-2,0L31.54,37l-.08-1.12L30.94,35l-1.42,0-.82-1.29L28,33.28l0,.4-1.32.08-.49-.68-1.38-.28L23.6,34.12l-1.79-.31-.13-2-1.31-.22.52-1L20.74,30,19,31.16,17.94,31l-.39-.84.24-.87.6-1.1,1.37-.7h2.65v.81l1,.44-.08-1.38.69-.69,1.39-.91.09-.64,1.38-1.44,1.47-.82-.13-.1,1-.94.36.1.17.21.38-.42.09,0-.41-.06-.42-.14v-.41l.22-.18h.49l.23.1.19.39.24,0v0l.07,0,.69-.11.09-.34.4.1v.37l-.37.25h0l.06.4,1.24.38v0l.28,0,0-.54-1-.45-.05-.26.82-.28,0-.78-.86-.53-.06-1.32-1.18.58h-.43l.12-1L29,17.42l-.66.5v1.53l-1.19.38-.48,1-.52.09V19.63L25,19.48l-.56-.37-.22-.82,2-1.18,1-.29.1.65.55,0,0-.33.57-.09v-.11l-.24-.1-.06-.35.7-.06.43-.45,0,0h0l.13-.13L31,15.61l.65.56-1.71.91,2.18.51.28-.72h1l.34-.64L33,16.06v-.8l-2.12-.94-1.45.17-.82.43L28.64,16l-.86-.13-.13-.58.82-.75L27,14.44l-.43.13-.19.5.56.1-.11.56-.95,0-.15.38-1.38,0a4.15,4.15,0,0,0-.09-.78l1.08,0,.82-.8-.45-.23-.6.58-1,0-.59-.83H22.23l-1.32,1h1.21l.11.36-.31.29,1.34,0,.21.49L22,16.17l-.08-.37-.95-.21-.5-.28H19.29a22.44,22.44,0,0,1,28.05,1.31l-.26.48-1,.41L45.6,18l.1.55.54.08.32.8.92-.37.16,1.08h-.28L46.6,20l-.84.14L45,21.31l-1.17.18-.17,1,.5.11-.15.64L42.81,23l-1.06.23-.23.59.19,1.24.62.29h1l.71-.07.21-.56,1.1-1.43.73.15.71-.65.13.51,1.76,1.18-.22.29-.79,0,.31.43.48.11.57-.24v-.69l.26-.13L49.11,24l-1.17-.65-.31-.87h1l.31.31.84.72,0,.87.87.93L51,24.05l.6-.33.12,1,.58.64,1.18,0c.22.59.43,1.18.61,1.79ZM21.36,20.13l.59-.28.53.13-.18.71-.57.18Zm3.13,1.68v.47H23.14l-.5-.14.12-.33.65-.26h.88v.26Zm.61.65v.45l-.33.21-.42.08v-.74Zm-.37-.18v-.54l.46.42Zm.21,1.07v.44l-.32.32H23.9l.11-.49.34,0,.07-.16Zm-1.78-.89h.74L23,23.79l-.4-.21.09-.56Zm3,.74v.44h-.72l-.19-.29V23h.05Zm-.66-.6.2-.21.35.21-.28.23Zm28.77,5.81.07-.08.09.38Z"/><path d="M11.81,24v.7q.38-.86.81-1.68Z"/><line class="cls-2" x1="43" y1="18" x2="56" y2="5"/><line class="cls-2" x1="51" y1="43" x2="64" y2="56"/><line class="cls-2" x1="4" y1="9" x2="17" y2="22"/><line class="cls-2" x1="8" y1="55" x2="23" y2="40"/><circle class="cls-3" cx="56.5" cy="4.5" r="3.5"/><circle class="cls-3" cx="61.5" cy="53.5" r="3.5"/><circle class="cls-3" cx="5.5" cy="57.5" r="3.5"/><circle class="cls-3" cx="4.5" cy="9.5" r="3.5"/></g></g></svg>