<svg xmlns="http://www.w3.org/2000/svg" viewBox="0 0 52 26"><defs><style>.cls-1{fill:#fff;}</style></defs><title>icn-organise</title><g id="Layer_2" data-name="Layer 2"><g id="Layer_1-2" data-name="Layer 1"><ellipse class="cls-1" cx="26.23" cy="4" rx="4.5" ry="3"/><circle class="cls-1" cx="3.73" cy="23" r="2"/><circle class="cls-1" cx="14.73" cy="23" r="2"/><circle class="cls-1" cx="25.73" cy="23" r="2"/><circle class="cls-1" cx="37.73" cy="23" r="2"/><circle class="cls-1" cx="47.73" cy="23" r="2"/><path d="M48.73,19.49V15.21A3.2,3.2,0,0,0,45.53,12H26.73V8h1.66a1.72,1.72,0,0,0,1.24-.55C32.82,4,30.45,0,27.13,0H23.19a1.56,1.56,0,0,0-1.11.44C18.73,3.89,21.12,8,24.47,8h.26v4H5.94a3.21,3.21,0,0,0-3.21,3.2v4.25A3.32,3.32,0,0,0,.06,23.33,3.37,3.37,0,0,0,3.48,26h.25A3.41,3.41,0,0,0,7,23.71a3.26,3.26,0,0,0-2.3-4.13v-4.3A1.28,1.28,0,0,1,6,14h7.71v5.58a3.26,3.26,0,0,0-2.05,4.7A3.49,3.49,0,0,0,14.76,26H15a3.26,3.26,0,0,0,.73-6.45V14h9v5.58a3.25,3.25,0,0,0-2,4.69A3.45,3.45,0,0,0,25.77,26H26a3.26,3.26,0,0,0,.73-6.45V14h9v5.58a3.25,3.25,0,0,0-2,4.68A3.43,3.43,0,0,0,36.78,26H37a3.27,3.27,0,0,0,.71-6.45V14h7.75a1.25,1.25,0,0,1,1.25,1.25v4.23A3.28,3.28,0,0,0,47.27,26H48a3.3,3.3,0,0,0,.73-6.51Zm-43,3A1.5,1.5,0,0,1,4.18,24H3.85a1.5,1.5,0,0,1,0-3h.33A1.5,1.5,0,0,1,5.68,22.5Zm11.05,0a1.5,1.5,0,0,1-1.5,1.5H14.9a1.5,1.5,0,1,1,0-3h.33A1.5,1.5,0,0,1,16.73,22.5Zm11,0a1.5,1.5,0,0,1-1.5,1.5h-.33a1.5,1.5,0,0,1,0-3h.33A1.5,1.5,0,0,1,27.68,22.5ZM24.68,6a2,2,0,0,1-1.76-3,1.93,1.93,0,0,1,1.77-1h2.65a1.94,1.94,0,0,1,1.78,1,2,2,0,0,1-1.77,3Zm14,16.5a1.5,1.5,0,0,1-1.5,1.5h-.33a1.5,1.5,0,0,1,0-3h.33A1.5,1.5,0,0,1,38.68,22.5ZM48.34,24h-.67a1.5,1.5,0,0,1,0-3h.67a1.5,1.5,0,0,1,0,3Z"/></g></g></svg>