<svg id="Layer_1" data-name="Layer 1" xmlns="http://www.w3.org/2000/svg" xmlns:xlink="http://www.w3.org/1999/xlink" viewBox="0 0 728 511"><defs><style>.cls-1{fill:none;}.cls-2{fill:#4f4f4f;}.cls-3{fill:#fb453d;}.cls-4{fill:#ffbe21;}.cls-5{fill:#26ce4b;}.cls-6{opacity:0.3;}.cls-7{fill:#666;stroke:#333;stroke-miterlimit:10;opacity:0.5;}.cls-8{fill:#fff;}.cls-9{clip-path:url(#clip-path);}.cls-10{fill:#c63527;}</style><clipPath id="clip-path"><rect class="cls-1" x="314" y="205.5" width="100" height="100"/></clipPath></defs><title>browser-dark</title><path class="cls-2" d="M0,511V5A5,5,0,0,1,5,0H723a5,5,0,0,1,5,5V511Z"/><circle class="cls-3" cx="13.5" cy="12.5" r="4.5"/><circle class="cls-4" cx="27.5" cy="12.5" r="4.5"/><circle class="cls-5" cx="41.5" cy="12.5" r="4.5"/><g class="cls-6"><path d="M81.33,7.73a.54.54,0,0,1,.42-.18.58.58,0,0,1,.43.18L87,12.58a.57.57,0,0,1,.17.42.61.61,0,0,1-.17.43l-4.85,4.84a.58.58,0,0,1-.43.18.54.54,0,0,1-.42-.18l-.55-.54a.5.5,0,0,1-.19-.43.59.59,0,0,1,.19-.42l3-2.88H76.6a.58.58,0,0,1-.6-.6v-.8a.57.57,0,0,1,.17-.42A.58.58,0,0,1,76.6,12h7.18l-3-2.88a.59.59,0,0,1-.19-.42.5.5,0,0,1,.19-.43Z"/></g><g class="cls-6"><path d="M64.67,18.27a.54.54,0,0,1-.42.18.58.58,0,0,1-.43-.18L59,13.43A.61.61,0,0,1,58.8,13a.57.57,0,0,1,.17-.42l4.85-4.85a.58.58,0,0,1,.43-.18.54.54,0,0,1,.42.18l.58.54a.53.53,0,0,1,.16.43.59.59,0,0,1-.19.42l-3,2.88H69.4a.62.62,0,0,1,.6.6v.8a.58.58,0,0,1-.18.43.57.57,0,0,1-.42.17H62.22l3,2.88a.59.59,0,0,1,.19.42.53.53,0,0,1-.16.43Z"/></g><rect class="cls-7" x="173" y="6.5" width="382" height="14" rx="3.24" ry="3.24"/><g class="cls-6"><path d="M710,8a2,2,0,1,1,.59,1.45A2,2,0,0,1,710,8Zm2,2.94a2,2,0,0,0-1.45,3.48,2,2,0,0,0,2.89-2.88A2,2,0,0,0,712.06,11Zm-2,7.1a2,2,0,1,1,4.07,0,2,2,0,0,1-.59,1.44,2.06,2.06,0,0,1-2.89,0A2,2,0,0,1,710,18.05Z"/></g><g class="cls-6"><path d="M100.5,18.89c-.19-.09-.38-.19-.55-.29a4.64,4.64,0,0,0,1.13.53A5.89,5.89,0,0,1,100.5,18.89Zm-.6-.31,0,0a6,6,0,0,1-.52-.36A3.72,3.72,0,0,0,99.9,18.58Zm2.41.82.1,0h-.1Z"/><path d="M109,7.9v4.69a.27.27,0,0,1-.28.28H104a.27.27,0,0,1-.28-.28v-1.1a.28.28,0,0,1,.08-.2.29.29,0,0,1,.22-.08l2.37.11A4.06,4.06,0,0,0,104.92,10a4.16,4.16,0,0,0-4.53.4l-.21.18-.11.1a1,1,0,0,0-.18.18l0,0A4,4,0,0,0,99,12.66a.42.42,0,0,1,0,.12A4,4,0,0,0,98.83,14a3.74,3.74,0,0,0,.68,1.85l0,.05a4.13,4.13,0,0,0,1.42,1.3,2.92,2.92,0,0,0,.5.25l.48.15.42.08a4,4,0,0,0,.6,0,4,4,0,0,0,2.57-.89c.74-.59.55-1,.76-1.59a.23.23,0,0,1,.1-.15.32.32,0,0,1,.18-.06h1.15a.27.27,0,0,1,.22.11.29.29,0,0,1,.06.22c-.12.66,0,1.2-.4,1.73a5.85,5.85,0,0,1-2,1.7,5.52,5.52,0,0,1-2.61.62l-.46,0h-.19l-.63-.1a4.5,4.5,0,0,1-.6-.17,5.89,5.89,0,0,1-.58-.24c-.19-.09-.38-.19-.55-.29a6,6,0,0,1-.52-.36,4.28,4.28,0,0,1-.9-.85,4.09,4.09,0,0,1-.51-.67,5.62,5.62,0,0,1-.87-2.54,5.54,5.54,0,0,1,.3-2.5,5.83,5.83,0,0,1,1.3-2.11l0,0a5.6,5.6,0,0,1,1.56-1.11A5.52,5.52,0,0,1,103,7.81a5.67,5.67,0,0,1,2.46.54,5.81,5.81,0,0,1,2,1.5l-.09-1.93a.29.29,0,0,1,.08-.22.28.28,0,0,1,.2-.08h1.1a.27.27,0,0,1,.28.28Z"/></g><g class="cls-6"><path d="M183.07,14.67a2.78,2.78,0,0,1-.61,1.9,2.32,2.32,0,0,1-3.3,0,2.79,2.79,0,0,1-.62-1.9,2.74,2.74,0,0,1,.62-1.89,2.29,2.29,0,0,1,3.3,0A2.74,2.74,0,0,1,183.07,14.67Zm-.85,0a2.2,2.2,0,0,0-.37-1.41,1.27,1.27,0,0,0-1-.47,1.24,1.24,0,0,0-1,.47,2.2,2.2,0,0,0-.37,1.41,2.23,2.23,0,0,0,.37,1.4,1.24,1.24,0,0,0,1,.48,1.28,1.28,0,0,0,1-.47A2.26,2.26,0,0,0,182.22,14.67Z"/><path d="M189.17,14.61A3.16,3.16,0,0,1,189,15.7a2.31,2.31,0,0,1-.48.84,2,2,0,0,1-.69.5,2,2,0,0,1-.83.18,3,3,0,0,1-.69-.08,2.8,2.8,0,0,1-.63-.26v2.06h-.83V12.22h.83v.51a3.29,3.29,0,0,1,.74-.46,2,2,0,0,1,.88-.19,1.61,1.61,0,0,1,1.38.67A3.09,3.09,0,0,1,189.17,14.61Zm-.85,0a2.34,2.34,0,0,0-.3-1.32,1.06,1.06,0,0,0-.94-.44,1.85,1.85,0,0,0-.71.15,3.43,3.43,0,0,0-.69.4v2.79a3.64,3.64,0,0,0,.6.21,2.52,2.52,0,0,0,.58.06,1.3,1.3,0,0,0,1.07-.47A2.1,2.1,0,0,0,188.32,14.63Z"/><path d="M195.12,14.76H191.5a2.05,2.05,0,0,0,.14.78,1.61,1.61,0,0,0,.37.56,1.57,1.57,0,0,0,.55.31,2.17,2.17,0,0,0,.69.11,2.84,2.84,0,0,0,1-.2,2.29,2.29,0,0,0,.72-.4h0v.91a7.72,7.72,0,0,1-.85.29,3.39,3.39,0,0,1-.91.12,2.64,2.64,0,0,1-1.91-.66,2.48,2.48,0,0,1-.68-1.88,2.68,2.68,0,0,1,.65-1.91,2.27,2.27,0,0,1,1.73-.71,2,2,0,0,1,1.53.58,2.34,2.34,0,0,1,.54,1.65Zm-.8-.64a1.45,1.45,0,0,0-.33-1,1.25,1.25,0,0,0-1-.36,1.44,1.44,0,0,0-1.06.39,1.57,1.57,0,0,0-.45,1Z"/><path d="M201,17.12h-.82V14.33a6.28,6.28,0,0,0,0-.64,1.24,1.24,0,0,0-.15-.46.68.68,0,0,0-.31-.27,1.38,1.38,0,0,0-.54-.09,1.73,1.73,0,0,0-.71.16,4.07,4.07,0,0,0-.71.43v3.66h-.82v-4.9h.82v.54a3.65,3.65,0,0,1,.8-.5,2.13,2.13,0,0,1,.85-.18,1.54,1.54,0,0,1,1.22.48,2.08,2.08,0,0,1,.41,1.38Z"/><path d="M205.6,17.08a3.29,3.29,0,0,1-.51.1,2.93,2.93,0,0,1-.49,0,1.51,1.51,0,0,1-1.14-.4,1.82,1.82,0,0,1-.39-1.3V12.91h-.56v-.69h.56V10.81h.83v1.41h1.7v.69h-1.7v2.24c0,.25,0,.46,0,.6a1,1,0,0,0,.13.41.57.57,0,0,0,.26.25,1.15,1.15,0,0,0,.52.09,1.64,1.64,0,0,0,.42-.06l.32-.1h0Z"/><path d="M210.18,13.12h0l-.36-.07-.41,0a1.78,1.78,0,0,0-.74.17,3.58,3.58,0,0,0-.68.44v3.48h-.83v-4.9H208v.72a4,4,0,0,1,.86-.56,1.9,1.9,0,0,1,.77-.16h.31l.29,0Z"/><path d="M215.36,17.12h-.82V16.6l-.3.21a1.68,1.68,0,0,1-.36.21,2,2,0,0,1-.47.17,2.38,2.38,0,0,1-.63.07,1.6,1.6,0,0,1-1.13-.44,1.51,1.51,0,0,1-.46-1.12,1.54,1.54,0,0,1,.24-.9,1.67,1.67,0,0,1,.69-.55,3.43,3.43,0,0,1,1.07-.26c.42-.05.87-.09,1.35-.11v-.13a.92.92,0,0,0-.1-.46.71.71,0,0,0-.28-.29,1.3,1.3,0,0,0-.42-.14,4.41,4.41,0,0,0-.52,0,3.23,3.23,0,0,0-.72.08,6,6,0,0,0-.83.25h0v-.84c.16,0,.39-.09.7-.14a4.56,4.56,0,0,1,.9-.08,4.78,4.78,0,0,1,.9.08,1.78,1.78,0,0,1,.67.3,1.28,1.28,0,0,1,.42.52,2,2,0,0,1,.14.79Zm-.82-1.2V14.55l-.89.07a4.4,4.4,0,0,0-.81.12,1.31,1.31,0,0,0-.57.32.75.75,0,0,0-.22.58.79.79,0,0,0,.25.64,1.21,1.21,0,0,0,.78.21,1.73,1.73,0,0,0,.79-.17A3.71,3.71,0,0,0,214.54,15.92Z"/><path d="M221.08,16.82a5.24,5.24,0,0,1-.79.3,2.56,2.56,0,0,1-.79.11,3,3,0,0,1-1-.15,2,2,0,0,1-.76-.47,2.1,2.1,0,0,1-.5-.8,3.27,3.27,0,0,1-.18-1.13,2.55,2.55,0,0,1,.67-1.89,2.3,2.3,0,0,1,1.74-.69,2.92,2.92,0,0,1,.83.12,5.09,5.09,0,0,1,.75.29v.92H221a2.81,2.81,0,0,0-.78-.45,2.05,2.05,0,0,0-.78-.16,1.4,1.4,0,0,0-1.11.47,2.1,2.1,0,0,0-.41,1.39,2,2,0,0,0,.4,1.36,1.37,1.37,0,0,0,1.12.48,1.89,1.89,0,0,0,.51-.07,1.91,1.91,0,0,0,.46-.17l.34-.19.25-.18h.05Z"/><path d="M227.2,17.12h-1.09l-2-2.14-.53.51v1.63h-.83V10.29h.83v4.38L226,12.22h1l-2.28,2.26Z"/><path d="M229.89,17.12h-1.06V15.87h1.06Z"/><path d="M235.18,13.12h0l-.36-.07-.41,0a1.74,1.74,0,0,0-.74.17,3.65,3.65,0,0,0-.69.44v3.48h-.82v-4.9h.82v.72a4.27,4.27,0,0,1,.87-.56,1.9,1.9,0,0,1,.77-.16h.31l.29,0Z"/><path d="M240.67,17.12h-.82v-.54a3.83,3.83,0,0,1-.8.5,2,2,0,0,1-.85.18,1.55,1.55,0,0,1-1.2-.47,2,2,0,0,1-.43-1.39V12.22h.82V15a4,4,0,0,0,0,.64,1,1,0,0,0,.15.45.72.72,0,0,0,.31.29,1.46,1.46,0,0,0,.54.08,1.8,1.8,0,0,0,.71-.16,3.45,3.45,0,0,0,.71-.43V12.22h.82Z"/><path d="M246.83,17.12H246V14.33a6.28,6.28,0,0,0,0-.64,1.24,1.24,0,0,0-.15-.46.68.68,0,0,0-.31-.27,1.38,1.38,0,0,0-.54-.09,1.77,1.77,0,0,0-.71.16,3.66,3.66,0,0,0-.7.43v3.66h-.83v-4.9h.83v.54a3.23,3.23,0,0,1,.8-.5,2,2,0,0,1,.84-.18,1.54,1.54,0,0,1,1.22.48,2.08,2.08,0,0,1,.41,1.38Z"/></g><rect class="cls-8" y="26" width="728" height="485"/><g class="cls-9"><g class="cls-9"><path class="cls-10" d="M390,205.5h24v24h-.16a24,24,0,0,1-23.84-24"/><path class="cls-10" d="M374,205.5H362c.18,28.75,23.24,52,51.66,52H414v-12h-.26c-21.86,0-39.61-17.88-39.74-40"/><path class="cls-10" d="M358,205.5H346c.23,37.6,30.39,68,67.56,68H414v-12h-.36c-30.61,0-55.45-25-55.64-56"/><path class="cls-10" d="M342,205.5H330c.28,46.45,37.54,84,83.46,84H414v-12h-.47c-39.35,0-71.29-32.19-71.53-72"/><path class="cls-10" d="M326,205.5H314c.34,55.29,44.69,100,99.35,100H414v-12h-.57c-48.1,0-87.13-39.34-87.43-88"/></g></g></svg>