<svg xmlns="http://www.w3.org/2000/svg" viewBox="0 0 123.5 49.15"><defs><style>.cls-1{fill:#fff;}</style></defs><title>Euro-Ath-Logo-white</title><g id="Layer_2" data-name="Layer 2"><g id="Layer_1-2" data-name="Layer 1"><path class="cls-1" d="M39.69,11.06a13.63,13.63,0,0,0-3.37-.16,10.49,10.49,0,0,1,.62.91l.58.93a13.69,13.69,0,0,1,6,.47,7.08,7.08,0,0,0-3.87-2.15"/><path class="cls-1" d="M43.72,14.56a11.35,11.35,0,0,0-5.28-.18l1.42,2.74a5.39,5.39,0,0,1,3.2.2c1.25.63,1.77,2,1.11,3.8a4.35,4.35,0,0,1-2.05,2.36l.25.79A6.67,6.67,0,0,0,46.42,19a4.1,4.1,0,0,0-2.7-4.46"/><path class="cls-1" d="M45.69,43.24C43,27,39.15,15.84,32.32,6.94,29.69,3.5,26.19,1.11,23.89.39A10,10,0,0,0,21.09,0c2.68.8,5.68,3.35,9,8.3C34,14.14,39.22,25.21,42.2,45.62a9.61,9.61,0,0,0,2.13-1.22,10,10,0,0,0,1.36-1.16"/><path class="cls-1" d="M15.44,15.73c-2.16-1.12-7.21-1.36-9.59-1.43C3.1,14.2,0,14.19,0,14.19v.49A27.19,27.19,0,0,1,11.69,18a19.18,19.18,0,0,1,3.75-2.3"/><path class="cls-1" d="M30.18,34.22C29.5,29.62,29,27.05,29,27.05a23.61,23.61,0,0,0-4.51-4.31,22.16,22.16,0,0,0-3.68,2.89c2.86,2.45,7.5,9.26,10.18,16.16h.29s-.42-3.2-1.06-7.56"/><path class="cls-1" d="M39,47c-2-16-6-30.1-11.58-38.45-2.61-3.89-5.93-7.39-8.4-8-3.15-.84-2.62,3-2.62,2.88l.32.23c.17-.59.59-1.67,2-1,1.24.59,3.82,3.08,6.13,7.91,3.76,7.84,5.43,13.48,8.21,37.84A18.77,18.77,0,0,0,36.2,48,17.53,17.53,0,0,0,39,47"/><path class="cls-1" d="M20.17,28.27c-.91,7.1-4.42,13.25-10.08,15.44,1.09-6,3.93-17.78,17-23.9a14.73,14.73,0,0,0-.89-2.7c-13.07,4-19.29,16-19.46,29.56l2.6,2.48c9-3.5,12.67-9.76,11.3-21.14Z"/><path class="cls-1" d="M24.61,13a32.45,32.45,0,0,0-17,10.53A20.83,20.83,0,0,0,2.93,40.61a10.13,10.13,0,0,0,1.82,4.11A27,27,0,0,1,8.14,28.41c4.54-8,12.06-11.59,17.39-13.33-.27-.7-.61-1.49-.92-2.11"/><polygon class="cls-1" points="51.61 27.39 51.61 18.91 56.18 18.91 56.18 20.01 52.9 20.01 52.9 22.57 55.65 22.57 55.65 23.68 52.9 23.68 52.9 26.28 56.65 26.28 56.65 27.39 51.61 27.39"/><path class="cls-1" d="M62.84,27.55c-2,0-3.45-1.17-3.45-3.15V18.91h1.28v5.35a2.19,2.19,0,0,0,4.38,0V18.91H66.3V24.4c0,2-1.48,3.15-3.46,3.15"/><path class="cls-1" d="M73.41,21.29A1.3,1.3,0,0,1,72,22.57H70.76V20H72a1.31,1.31,0,0,1,1.46,1.29m2.72,6.1-2.89-3.92a2.27,2.27,0,0,0,1.48-2.18,2.4,2.4,0,0,0-2.55-2.38H69.49v8.48h1.27V23.67H72l2.67,3.72Z"/><path class="cls-1" d="M85.26,23.13a3.19,3.19,0,1,1-3.19-3.28,3.2,3.2,0,0,1,3.19,3.28m1.31,0a4.5,4.5,0,1,0-4.5,4.42,4.4,4.4,0,0,0,4.5-4.42"/><path class="cls-1" d="M93.15,21.29a1.3,1.3,0,0,1-1.47,1.28H90.63V20h1.05a1.31,1.31,0,0,1,1.47,1.29m1.31,0a2.4,2.4,0,0,0-2.55-2.38H89.36v8.48h1.27V23.67h1.28a2.41,2.41,0,0,0,2.55-2.38"/><polygon class="cls-1" points="97.56 27.39 97.56 18.91 102.13 18.91 102.13 20.01 98.85 20.01 98.85 22.57 101.6 22.57 101.6 23.68 98.85 23.68 98.85 26.28 102.59 26.28 102.59 27.39 97.56 27.39"/><path class="cls-1" d="M110.05,24.17h-2.42l.84-2.07a7.4,7.4,0,0,0,.36-1h0c.11.36.24.76.36,1Zm2.66,3.22-3.62-8.6h-.46L105,27.39h1.27l.91-2.2h3.3l.92,2.2Z"/><path class="cls-1" d="M122.65,27.57l-4-4.34c-.64-.69-1.37-1.54-2-2.24l0,0c0,.77,0,1.49,0,2.12v4.26h-1.29V18.91h.89l3.65,4c.49.55,1.26,1.4,1.78,2h0c0-.66,0-1.39,0-2v-4H123v8.66Z"/><path class="cls-1" d="M56.05,37.91H53.63l.84-2.07a9,9,0,0,0,.36-1h0c.11.36.24.76.36,1Zm2.66,3.22-3.62-8.6h-.46L51,41.13h1.26l.92-2.2h3.3l.92,2.2Z"/><polygon class="cls-1" points="63.59 33.75 63.59 41.13 62.3 41.13 62.3 33.75 59.57 33.75 59.57 32.65 66.31 32.65 66.31 33.75 63.59 33.75"/><polygon class="cls-1" points="74.56 41.13 74.56 37.42 70.19 37.42 70.19 41.13 68.9 41.13 68.9 32.65 70.19 32.65 70.19 36.32 74.56 36.32 74.56 32.65 75.85 32.65 75.85 41.13 74.56 41.13"/><polygon class="cls-1" points="79.31 41.13 79.31 32.65 80.6 32.65 80.6 40.02 84.33 40.02 84.33 41.13 79.31 41.13"/><polygon class="cls-1" points="86.99 41.13 86.99 32.65 91.56 32.65 91.56 33.75 88.28 33.75 88.28 36.32 91.03 36.32 91.03 37.42 88.28 37.42 88.28 40.02 92.03 40.02 92.03 41.13 86.99 41.13"/><polygon class="cls-1" points="98.32 33.75 98.32 41.13 97.03 41.13 97.03 33.75 94.3 33.75 94.3 32.65 101.04 32.65 101.04 33.75 98.32 33.75"/><rect class="cls-1" x="104.03" y="32.65" width="1.29" height="8.48"/><path class="cls-1" d="M115.15,34.15a4.21,4.21,0,0,0-2.12-.56,3.29,3.29,0,1,0,0,6.58,4.6,4.6,0,0,0,2.34-.53l-.27,1.23a4.51,4.51,0,1,1-2.22-8.4,5.09,5.09,0,0,1,2.5.56Z"/><path class="cls-1" d="M120.58,41.29a4.3,4.3,0,0,1-2.2-.57l-.29-1.41a4.32,4.32,0,0,0,2.55.86c1,0,1.57-.53,1.57-1.32s-.45-1.22-1.47-1.55c-1.52-.49-2.31-1.34-2.31-2.51a2.38,2.38,0,0,1,2.68-2.32A3.36,3.36,0,0,1,123,33L122.7,34a3.09,3.09,0,0,0-1.64-.49,1.24,1.24,0,0,0-1.4,1.15c0,.56.48,1,1.37,1.32,1.47.51,2.47,1.29,2.47,2.73s-1,2.55-2.92,2.55"/></g></g></svg>