<svg xmlns="http://www.w3.org/2000/svg" viewBox="0 0 99.17 72.17"><defs><style>.cls-1{fill:#fff;}</style></defs><title>Finodex-logo-white</title><g id="Layer_2" data-name="Layer 2"><g id="Layer_1-2" data-name="Layer 1"><path class="cls-1" d="M23.79,51.22c-.44-.29-.83-.57-1.23-.85L9.85,41.65c-.53-.36-1-.71-1.57-1.08a.33.33,0,0,0-.49,0A1.85,1.85,0,0,1,5,40.23a1.88,1.88,0,0,1,2.69-2.56,1.84,1.84,0,0,1,.64,2,.33.33,0,0,0,.17.46q7.65,5.24,15.28,10.49c.21.15.33.17.51-.05s.65-.7,1-1.09l-.45-.42-7.64-6.93q-4.33-4-8.69-7.9L4.81,30.9a.69.69,0,0,0-.41-.17c-.38,0-.76,0-1.13,0-.2,0-.28-.07-.28-.28,0-.5,0-1,0-1.51,0-.19.07-.26.26-.26.5,0,1,0,1.52,0,.21,0,.27.08.26.28,0,.41,0,.82,0,1.24a.51.51,0,0,0,.15.35l15.1,13.72,5.08,4.62.35.3,1.19-1a2.71,2.71,0,0,0-.17-.25L9.21,25.81c-.48-.61-1-1.21-1.44-1.82-.13-.17-.23-.19-.44-.11a1.89,1.89,0,1,1,.8-.7.41.41,0,0,0,0,.58L24.52,44.4l2.65,3.35.15.17,1.53-1-.72-1.38L20.55,31.42c-1.21-2.27-2.43-4.53-3.63-6.81a.45.45,0,0,0-.48-.27c-.3,0-.6,0-.91,0s-.26-.07-.26-.26c0-.51,0-1,0-1.52,0-.18.05-.27.25-.27.51,0,1,0,1.54,0,.2,0,.25.09.25.27,0,.52,0,1,0,1.55a1,1,0,0,0,.1.41l8,15,3.72,7c.11.21.19.24.42.14.58-.27,1.17-.52,1.77-.74.23-.09.27-.2.19-.42q-1.56-4.8-3.13-9.62-2.61-8-5.21-16-1.65-5.07-3.28-10.12c-.08-.25-.16-.36-.47-.34a1.87,1.87,0,0,1-2-1.77,1.9,1.9,0,0,1,1.69-2,1.85,1.85,0,0,1,2.05,1.55A1.78,1.78,0,0,1,20.46,9a.34.34,0,0,0-.14.46Q22.21,15.22,24.08,21L29.3,37c.89,2.75,1.79,5.5,2.67,8.26.09.25.17.33.45.24.52-.16,1.06-.27,1.63-.4l-.21-1.49c-.35-2.25-.69-4.5-1-6.75l-1-6.64q-.57-3.66-1.12-7.32c-.36-2.36-.73-4.72-1.09-7.08-.25-1.61-.49-3.23-.73-4.84,0-.21-.11-.31-.33-.3s-.67,0-1,0c-.16,0-.22-.06-.22-.23V8.9c0-.15.06-.21.21-.21h1.6c.16,0,.23.07.23.23,0,.34,0,.68,0,1a10.54,10.54,0,0,0,.2,2.38q.55,3.56,1.09,7.1c.34,2.22.69,4.43,1,6.64l1.08,7.05,1,6.64c.25,1.63.5,3.25.74,4.88a1,1,0,0,0,.06.26c0,.07.12.16.19.16l1.84-.14c.15,0,.21-.07.21-.22v-.86c0-2.17,0-4.35,0-6.53q0-4.94.05-9.87l.06-7.66c0-.23-.06-.32-.3-.36a1.87,1.87,0,0,1-1.52-2.07,1.9,1.9,0,0,1,2-1.66,1.86,1.86,0,0,1,1.73,1.87,1.8,1.8,0,0,1-1.18,1.76c-.22.08-.26.2-.26.41q0,3.88,0,7.77c0,1.38,0,2.76,0,4.14l-.06,9.73c0,1.08,0,2.15,0,3.22,0,.26.08.33.33.34.42,0,.84,0,1.3.06,0-.36.08-.71.11-1.06.12-1.35.23-2.71.35-4.06s.25-2.71.37-4.06c.1-1.14.19-2.27.29-3.4.12-1.37.25-2.73.37-4.09.1-1.13.19-2.27.29-3.4.12-1.36.25-2.71.37-4.06.1-1.11.19-2.21.29-3.32.12-1.4.25-2.8.37-4.2.1-1.1.19-2.21.29-3.32.12-1.39.25-2.78.37-4.17.1-1.13.21-2.26.29-3.4.05-.7.06-1.41.07-2.12,0-.23.06-.33.32-.32.48,0,1,0,1.46,0,.2,0,.27.07.27.27,0,.5,0,1,0,1.49,0,.19-.07.26-.26.26H43.41c-.19,0-.26.08-.27.26q-.28,3.26-.56,6.5T42,15l-.54,5.93c-.15,1.77-.3,3.55-.46,5.32-.17,2-.36,4-.53,5.92-.16,1.78-.3,3.55-.46,5.33-.17,2-.36,4-.53,5.92,0,.47-.08.93-.12,1.4,0,.19,0,.28.24.31.56.11,1.11.22,1.67.35.21,0,.25-.05.29-.21l1.29-5,5.94-23Q50,12.5,51.26,7.79a.34.34,0,0,0-.2-.47,1.88,1.88,0,1,1,1,.24.38.38,0,0,0-.4.34Q49.36,17.06,47,26.22q-2.48,9.56-5,19.11c-.06.23,0,.34.23.41a6.44,6.44,0,0,1,1,.34c.24.11.34.06.44-.19.72-1.76,1.46-3.53,2.19-5.29q4.74-11.4,9.45-22.78a1.46,1.46,0,0,0,.11-.58c0-.53,0-1,0-1.58,0-.2.08-.27.28-.27h1.52c.18,0,.26.06.26.26,0,.51,0,1,0,1.54,0,.2-.08.26-.26.26s-.59,0-.89,0a.4.4,0,0,0-.45.3Q54,22.3,52.11,26.85q-4,9.59-8,19.17c-.15.37-.15.37.22.56s.66.32,1,.51.29.1.43-.09q2.37-3.31,4.76-6.62,4.76-6.6,9.51-13.2c.2-.27.12-.41,0-.63a1.84,1.84,0,0,1,.07-2.4,1.88,1.88,0,0,1,3.12,2,1.85,1.85,0,0,1-2.22,1,.38.38,0,0,0-.51.18L53.14,37.56,46.3,47.07q-.13.18-.27.39c.49.35,1,.7,1.45,1,.05,0,.22,0,.3-.09l2.85-2.34,10.58-8.7L72.54,28,85.12,17.68a.48.48,0,0,0,.2-.42c0-.43,0-.86,0-1.29,0-.2.08-.28.28-.28H87.1c.17,0,.26.05.26.24V17.5c0,.16,0,.25-.22.23H87a2.51,2.51,0,0,0-2.12.76q-7.14,5.93-14.31,11.8L56.42,42l-8.24,6.78-.26.24a1.36,1.36,0,0,1,.27.13c.39.36.78.72,1.15,1.11a.38.38,0,0,0,.54.08l6.91-3.68,7.47-4,15.59-8.31,9.86-5.24c1.86-1,3.71-2,5.57-3a.28.28,0,0,0,.17-.39,1.85,1.85,0,0,1,1.07-2.13,1.9,1.9,0,0,1,2.34.68,1.94,1.94,0,0,1-.23,2.37,1.88,1.88,0,0,1-2.38.24,1.05,1.05,0,0,1-.28-.22c-.18-.28-.36-.2-.6-.07L83.6,32.87,66.27,42.1,53.91,48.68l-3.77,2-.21.13a3.15,3.15,0,0,0,.19.27A18.41,18.41,0,0,1,52,53.9c.09.17.13.31-.1.39s-.35.3-.54,0a16,16,0,0,0-7.28-7,15.11,15.11,0,0,0-5.62-1.55,16,16,0,0,0-12,3.79,15.81,15.81,0,0,0-3.67,4.46c-.05.08-.09.18-.15.26s-.17.25-.22.23a1.54,1.54,0,0,1-.48-.24s0-.18.05-.25l1.55-2.41Z"/><path class="cls-1" d="M59.78,58.29V46.71c0-.41,0-.41.41-.41h3.45c.26,0,.35.08.35.35Q64,59,64,71.37c0,.24-.07.34-.33.34-1.19,0-2.39,0-3.58,0-.23,0-.31-.07-.3-.3s0-.67,0-1l-.07,0-.19.21A4.77,4.77,0,0,1,56,72.15a6.07,6.07,0,0,1-5.9-3.57,8.85,8.85,0,0,1,.44-9.28,5.94,5.94,0,0,1,4.94-2.79,5.17,5.17,0,0,1,4.11,1.6,1.31,1.31,0,0,0,.11.12Zm.4,6.42a5,5,0,0,0-.71-2.88,3.12,3.12,0,0,0-5.11-.48,4.66,4.66,0,0,0,.21,6.18,3,3,0,0,0,4.09.21A4.12,4.12,0,0,0,60.18,64.71Z"/><path class="cls-1" d="M48.13,64.34a8.06,8.06,0,0,1-1.66,5,7.15,7.15,0,0,1-4.94,2.7,8.39,8.39,0,0,1-4.78-.72,7,7,0,0,1-3.88-5,8.7,8.7,0,0,1,.45-5.4,6.88,6.88,0,0,1,4.39-4,8.23,8.23,0,0,1,6.38.43A7.14,7.14,0,0,1,48,62.81C48.07,63.32,48.08,63.83,48.13,64.34ZM40.4,60.23A3.09,3.09,0,0,0,38,61.36a4.71,4.71,0,0,0-.34,5.5,3.13,3.13,0,0,0,5.41,0,4.68,4.68,0,0,0,0-5.22A3.14,3.14,0,0,0,40.4,60.23Z"/><path class="cls-1" d="M79.9,67.61a6,6,0,0,1-.9,1.77,6.6,6.6,0,0,1-4.73,2.72,8,8,0,0,1-4-.47,6.43,6.43,0,0,1-3.92-4.24A9.49,9.49,0,0,1,67,59.92a6.12,6.12,0,0,1,4.73-3.32,8.27,8.27,0,0,1,3.36.14,6,6,0,0,1,4.3,3.89A10.62,10.62,0,0,1,80,64.77c0,.19-.08.26-.26.26-.46,0-.92,0-1.38,0H70.77c-.4,0-.42,0-.4.39a5.25,5.25,0,0,0,.46,2,2.7,2.7,0,0,0,4.55.59c.21-.26.37-.56.58-.83a.39.39,0,0,1,.27-.16l3.51.57A.71.71,0,0,1,79.9,67.61Zm-9.4-5.25H76a3.57,3.57,0,0,0-.7-1.84,2.48,2.48,0,0,0-3.9-.23A3.64,3.64,0,0,0,70.5,62.36Z"/><path class="cls-1" d="M21.82,58.28a.75.75,0,0,1,.09-.15,4.16,4.16,0,0,1,2.88-1.57,5.92,5.92,0,0,1,3,.33,4.08,4.08,0,0,1,2.34,2.42,7,7,0,0,1,.5,2.5c0,3.19,0,6.38.05,9.57,0,.23-.07.33-.31.32H26.79c-.25,0-.32-.09-.32-.32,0-2.54,0-5.08,0-7.61a14.28,14.28,0,0,0-.18-2.27,1.79,1.79,0,0,0-1.58-1.58,2.16,2.16,0,0,0-2.42,1,3.85,3.85,0,0,0-.5,1.87c-.05,1.31-.06,2.63-.07,3.94,0,1.52,0,3,0,4.58,0,.36,0,.37-.37.37h-3.5c-.25,0-.33-.08-.33-.34V57.31c0-.24.07-.33.32-.33,1.19,0,2.37,0,3.56,0,.27,0,.33.1.32.34s0,.61,0,.92Z"/><path class="cls-1" d="M8.92,50.15,8.54,50a3.09,3.09,0,0,0-1.33-.31,1.29,1.29,0,0,0-1.31.88,3.85,3.85,0,0,0-.26,1.2c0,1.64,0,3.29,0,4.93,0,.22.09.29.3.29H8.58c.36,0,.36,0,.36.38,0,.94,0,1.89,0,2.84,0,.25-.08.33-.33.33-.88,0-1.77,0-2.65,0-.28,0-.36.08-.36.36,0,3.46,0,6.91,0,10.37,0,.45,0,.45-.46.45-1.14,0-2.28,0-3.42,0-.28,0-.36-.09-.36-.37,0-3.46,0-6.93,0-10.39,0-.42,0-.42-.42-.42H.21c-.15,0-.21-.06-.21-.21V57.19C0,57,.07,57,.22,57s.57,0,.85,0,.32-.08.32-.32q0-1.89,0-3.78A9.59,9.59,0,0,1,2,49.11,4.85,4.85,0,0,1,6.62,46a4.64,4.64,0,0,1,2,.32.42.42,0,0,1,.31.45c0,1,0,2.06,0,3.09C8.94,49.91,8.93,50,8.92,50.15Z"/><path class="cls-1" d="M89,60.74l.23-.35c.65-1,1.3-2.11,1.94-3.17a.41.41,0,0,1,.37-.24h4.68l.23,0-.23.33q-2.34,3-4.69,6a.43.43,0,0,0,0,.64q2.9,3.69,5.75,7.4a2.73,2.73,0,0,1,.18.26l-.33,0h-4.5a.51.51,0,0,1-.48-.24l-3.38-4.59-.21-.27-.2.29c-1,1.5-2,3-3,4.51a.59.59,0,0,1-.56.31H80.25l-.33,0,.19-.27L85.92,64c.26-.33.26-.32,0-.65l-4.56-6.06a3.4,3.4,0,0,1-.22-.3l.3,0h4.49a.54.54,0,0,1,.48.25c.77,1.09,1.56,2.18,2.34,3.27Z"/><path class="cls-1" d="M14.34,64.36v7c0,.37,0,.37-.36.37-1.16,0-2.32,0-3.47,0-.27,0-.38-.06-.38-.36q0-7,0-14c0-.26.08-.34.34-.34,1.18,0,2.35,0,3.53,0,.27,0,.34.09.34.35Q14.34,60.84,14.34,64.36Z"/><path class="cls-1" d="M14.73,50.84a2.49,2.49,0,1,1-2.48-2.51A2.53,2.53,0,0,1,14.73,50.84Z"/></g></g></svg>