<svg xmlns="http://www.w3.org/2000/svg" viewBox="0 0 58 62"><defs><style>.cls-1,.cls-2,.cls-3{fill:#fff;}.cls-1,.cls-3,.cls-4,.cls-5{stroke:#000;}.cls-1,.cls-4,.cls-5{stroke-miterlimit:10;}.cls-1,.cls-3,.cls-5{stroke-width:2px;}.cls-3{stroke-linejoin:round;}.cls-4,.cls-5{fill:none;}</style></defs><title>icn-data</title><g id="Layer_2" data-name="Layer 2"><g id="Layer_1-2" data-name="Layer 1"><path class="cls-1" d="M45,17a26,26,0,0,0,1-4A12,12,0,0,0,34,1c-5.26,0-8.38,4.29-10,9-.38-.06-2.11-.91-2.5-1C17,8,12,11,13.12,17.2A9,9,0,0,0,6,26c0,4.95,5.05,7,10,7H42a9,9,0,0,0,9-9C51,20.35,48.14,18.41,45,17Z"/><rect class="cls-2" x="15.04" y="30.13" width="27" height="5.96"/><path class="cls-3" d="M17,38.66c0,3,5.16,5.39,11.51,5.39S40,41.64,40,38.66V21h0c-.4-2.82-5.37-5-11.47-5S17.42,18.22,17,21h0V38.66Z"/><ellipse class="cls-4" cx="28.45" cy="21.39" rx="11.51" ry="5.39"/><path d="M40.46,32c0,3.36-5.27,6-12,6s-12-2.64-12-6h1c0,2.71,5,5,11,5s11-2.29,11-5Z"/><path d="M40.46,27c0,3.36-5.27,6-12,6s-12-2.64-12-6h1c0,2.71,5,5,11,5s11-2.29,11-5Z"/><line class="cls-5" y1="40" x2="12.71" y2="40"/><polygon points="8.73 43.39 12.12 40 8.73 36.61 11.61 36.61 15 40 11.61 43.39 8.73 43.39"/><line class="cls-5" x1="58" y1="39" x2="44.29" y2="39"/><polygon points="48.27 35.61 44.88 39 48.27 42.39 45.39 42.39 42 39 45.39 35.61 48.27 35.61"/><line class="cls-5" x1="29" y1="62" x2="29" y2="48.29"/><polygon points="32.39 52.27 29 48.88 25.61 52.27 25.61 49.39 29 46 32.39 49.39 32.39 52.27"/></g></g></svg>