<svg id="Layer_1" data-name="Layer 1" xmlns="http://www.w3.org/2000/svg" viewBox="0 0 258 38"><defs><style>.cls-1{fill:#c63527;}</style></defs><title>OPENTRACK</title><path class="cls-1" d="M26.2,6.32a13.19,13.19,0,0,1,3.72,9.78v5a13.22,13.22,0,0,1-3.72,9.78,13.15,13.15,0,0,1-9.73,3.66,13.11,13.11,0,0,1-9.71-3.66A13.22,13.22,0,0,1,3,21.06v-5A13.24,13.24,0,0,1,6.76,6.32a13.13,13.13,0,0,1,9.71-3.68A13.12,13.12,0,0,1,26.2,6.32ZM16.47,9.66a6.41,6.41,0,0,0-4.75,1.63,6.51,6.51,0,0,0-1.67,4.81v5a6.55,6.55,0,0,0,1.67,4.82,6.48,6.48,0,0,0,4.75,1.6,6.51,6.51,0,0,0,4.77-1.6,6.55,6.55,0,0,0,1.67-4.82v-5a6.54,6.54,0,0,0-1.67-4.83A6.47,6.47,0,0,0,16.47,9.66Z"/><path class="cls-1" d="M45.26,2.64a11.35,11.35,0,0,1,8.35,3.47,11.33,11.33,0,0,1,3.46,8.34,11.34,11.34,0,0,1-3.46,8.35,11.34,11.34,0,0,1-8.35,3.46H43.72v-7h1.54a4.75,4.75,0,0,0,4.79-4.79,4.75,4.75,0,0,0-4.79-4.79H41.45V34.5h-7v-25a6.79,6.79,0,0,1,6.82-6.83Z"/><path class="cls-1" d="M81.6,27.48v7H67.5a6.79,6.79,0,0,1-6.82-6.83V9.47a6.53,6.53,0,0,1,2-4.81,6.56,6.56,0,0,1,4.83-2H81.77v7H67.7v4.79H81V21H67.7v6.44Z"/><path class="cls-1" d="M93.44,34.5h-7v-25a7,7,0,0,1,1.67-4.75A6,6,0,0,1,92,2.64a5.91,5.91,0,0,1,4.36,1.1A8.51,8.51,0,0,1,99.5,8.53l5.3,18.07v-24h7v25a7.16,7.16,0,0,1-1.67,4.84,6,6,0,0,1-3.9,2,6.11,6.11,0,0,1-4.36-1.13,8.54,8.54,0,0,1-3.14-4.8L93.44,10.54Z"/><path class="cls-1" d="M139.89,2.64v7h-8.81V34.5h-7V9.62h-8.81v-7Z"/><path class="cls-1" d="M161.52,34.5l-7.89-9.57a5.18,5.18,0,0,1-1.71-3.48,4.23,4.23,0,0,1,4.23-4.24h2.27a3.55,3.55,0,0,0,2.46-.66q.66-.66.66-3.12c0-1.63-.22-2.66-.66-3.11a3.55,3.55,0,0,0-2.46-.66h-8.08V34.5h-7v-25a6.79,6.79,0,0,1,6.82-6.83h8.28a10,10,0,0,1,7.4,2.72,10,10,0,0,1,2.72,7.42,10,10,0,0,1-2.72,7.41,9.85,9.85,0,0,1-5.67,2.56l9.69,11.75Z"/><path class="cls-1" d="M192.3,27.59h-8.57L185.44,22h5.15L187.13,10.6l-7.3,23.9h-7.36l8.28-26.87A7.56,7.56,0,0,1,183,4.18a6.19,6.19,0,0,1,8.17,0,7.48,7.48,0,0,1,2.29,3.45l8.26,26.87H194.4Z"/><path class="cls-1" d="M225.58,2.84v7h-3.15c-5.2,0-8.48.41-9.82,1.28a4.33,4.33,0,0,0-1.64,2.1,14.59,14.59,0,0,0-.82,5.48,15.7,15.7,0,0,0,.71,5.24,4.5,4.5,0,0,0,1.48,2.14c1.29,1,4.66,1.49,10.09,1.47h3.15v7h-3.15a61.92,61.92,0,0,1-7.83-.35,14,14,0,0,1-6.54-2.58,11.4,11.4,0,0,1-3.75-5.22,22.4,22.4,0,0,1-1.17-7.68,21.67,21.67,0,0,1,1.34-8.13,11.2,11.2,0,0,1,4.33-5.29,14.8,14.8,0,0,1,6.26-2.14,70.48,70.48,0,0,1,7.36-.27Z"/><path class="cls-1" d="M236.74,34.5h-7V2.64h7Zm9.8,0-7.72-11.3c-.85-1.22-1.31-1.92-1.39-2.09a5.39,5.39,0,0,1-.56-2.53,5.27,5.27,0,0,1,.56-2.52c.08-.17.54-.87,1.39-2.1l7.72-11.32H255L244.59,17.9a1.08,1.08,0,0,0,0,1.34L255,34.5Z"/></svg>