<svg xmlns="http://www.w3.org/2000/svg" viewBox="0 0 32 38"><defs><style>.cls-1{fill:#fff;stroke-miterlimit:10;}.cls-1,.cls-2,.cls-3{stroke:#000;}.cls-1,.cls-2{stroke-width:2px;}.cls-2,.cls-3{fill:none;stroke-linejoin:bevel;}.cls-4{font-size:11px;font-family:ProximaSoft-Regular, Proxima Soft;letter-spacing:-0.02em;}.cls-5{letter-spacing:-0.01em;}</style></defs><title>icn-shirt</title><g id="Layer_2" data-name="Layer 2"><g id="Layer_1-2" data-name="Layer 1"><path class="cls-1" d="M28,10.35V1H22.19a9.1,9.1,0,0,1-6.54,2.77A9.07,9.07,0,0,1,9.12,1H4v9.35a8.14,8.14,0,0,1-3,6.46V37H31V16.81A8.14,8.14,0,0,1,28,10.35Z"/><path class="cls-2" d="M15.65,12.86a6.3,6.3,0,0,0,6.28-6.28V1.7c0-.15,0-.29,0-.44a9,9,0,0,1-6.26,2.53A9,9,0,0,1,9.39,1.26c0,.15,0,.29,0,.44V6.58A6.3,6.3,0,0,0,15.65,12.86Z"/><rect class="cls-3" x="7.5" y="16.5" width="17" height="11"/><text class="cls-4" transform="translate(9.64 26.19)">5<tspan class="cls-5" x="6.31" y="0">2</tspan></text></g></g></svg>