<svg xmlns="http://www.w3.org/2000/svg" viewBox="0 0 54 49"><defs><style>.cls-1{fill:#fff;}.cls-1,.cls-2{stroke:#000;stroke-miterlimit:10;stroke-width:2px;}.cls-2{fill:none;}</style></defs><title>icn-api</title><g id="Layer_2" data-name="Layer 2"><g id="Layer_1-2" data-name="Layer 1"><path class="cls-1" d="M44.88,19A28.74,28.74,0,0,0,46,14.5,13.49,13.49,0,0,0,32.5,1c-5.92,0-9.43,4.83-11.25,10.12-.43-.06-2.38-1-2.81-1.12C13.38,8.88,7.75,12.25,9,19.23a10.16,10.16,0,0,0-8,9.89C1,34.69,6.68,37,12.25,37H41.5A10.15,10.15,0,0,0,51.62,26.88C51.62,22.77,48.4,20.59,44.88,19Z"/><line class="cls-2" x1="20" y1="18" x2="14" y2="24"/><line class="cls-2" x1="20" y1="29" x2="14" y2="23"/><line class="cls-2" x1="34" y1="29" x2="40" y2="23"/><line class="cls-2" x1="24" y1="32" x2="29" y2="15"/><line class="cls-2" x1="34" y1="18" x2="40" y2="24"/><line class="cls-2" x1="12" y1="11" x2="3.96" y2="2.96"/><polygon points="9.17 3.38 4.38 3.38 4.38 8.17 2.34 6.14 2.34 1.34 7.14 1.34 9.17 3.38"/><line class="cls-2" x1="45" y1="9" x2="52.38" y2="1.62"/><polygon points="51.96 6.83 51.97 2.03 47.17 2.04 49.2 0 54 0 54 4.79 51.96 6.83"/><line class="cls-2" x1="27" y1="37" x2="27" y2="46.71"/><polygon points="23.61 42.73 27 46.12 30.39 42.73 30.39 45.61 27 49 23.61 45.61 23.61 42.73"/></g></g></svg>