<svg xmlns="http://www.w3.org/2000/svg" viewBox="0 0 60 41"><defs><style>.cls-1{fill:#fff;stroke-width:2px;}.cls-1,.cls-2,.cls-3{stroke:#000;stroke-miterlimit:10;}.cls-2,.cls-3{fill:none;}.cls-3{stroke-linecap:square;}</style></defs><title>icn-printables</title><g id="Layer_2" data-name="Layer 2"><g id="Layer_1-2" data-name="Layer 1"><rect class="cls-1" x="1" y="1" width="26" height="33"/><line class="cls-2" x1="5" y1="6.5" x2="13" y2="6.5"/><line class="cls-2" x1="5" y1="9.5" x2="13" y2="9.5"/><line class="cls-2" x1="5" y1="12.5" x2="13" y2="12.5"/><line class="cls-2" x1="5" y1="15.5" x2="13" y2="15.5"/><line class="cls-2" x1="5" y1="18.5" x2="13" y2="18.5"/><line class="cls-2" x1="5" y1="21.5" x2="13" y2="21.5"/><line class="cls-2" x1="5" y1="24.5" x2="13" y2="24.5"/><line class="cls-2" x1="5" y1="27.5" x2="13" y2="27.5"/><line class="cls-2" x1="15" y1="6.5" x2="23" y2="6.5"/><line class="cls-2" x1="15" y1="9.5" x2="23" y2="9.5"/><line class="cls-2" x1="15" y1="12.5" x2="23" y2="12.5"/><line class="cls-2" x1="15" y1="15.5" x2="23" y2="15.5"/><line class="cls-2" x1="15" y1="18.5" x2="23" y2="18.5"/><line class="cls-2" x1="15" y1="21.5" x2="23" y2="21.5"/><rect class="cls-1" x="33" y="1" width="26" height="33"/><line class="cls-2" x1="37" y1="6.5" x2="45" y2="6.5"/><rect class="cls-2" x="37.5" y="9.5" width="17" height="8"/><rect class="cls-2" x="37.5" y="20.5" width="17" height="8"/><rect class="cls-1" x="14" y="25" width="26" height="15"/><line class="cls-2" x1="18" y1="29.5" x2="24" y2="29.5"/><line class="cls-2" x1="18" y1="32.5" x2="24" y2="32.5"/><line class="cls-3" x1="28.5" y1="32.5" x2="30.5" y2="34.5"/><line class="cls-3" x1="35.5" y1="29.5" x2="30.5" y2="34.5"/></g></g></svg>