<svg xmlns="http://www.w3.org/2000/svg" viewBox="0 0 56.33 38"><defs><style>.cls-1{fill:#fff;stroke-width:2px;}.cls-1,.cls-2{stroke:#000;stroke-miterlimit:10;}.cls-2{fill:none;}</style></defs><title>icn-stopwatch</title><g id="Layer_2" data-name="Layer 2"><g id="Layer_1-2" data-name="Layer 1"><circle class="cls-1" cx="39.5" cy="21.5" r="15.5"/><rect x="23" y="7" width="5" height="3" transform="translate(1.46 20.52) rotate(-45)"/><rect x="51" y="7" width="5" height="3" transform="translate(21.68 -35.34) rotate(45)"/><rect x="34" width="11" height="3"/><rect x="36.5" y="1.5" width="6" height="3" transform="translate(42.5 -36.5) rotate(90)"/><path d="M48.62,30.17A12.58,12.58,0,0,0,39.5,8.91V21.55Z"/><line class="cls-2" x1="39.5" y1="31" x2="39.5" y2="35"/><line class="cls-2" x1="31" y1="21.5" x2="27" y2="21.5"/><line class="cls-2" x1="21" y1="17.5" x2="8" y2="17.5"/><line class="cls-2" x1="20" y1="10.5" x2="5" y2="10.5"/><line class="cls-2" x1="21" y1="7.5" x2="6" y2="7.5"/><line class="cls-2" x1="31" y1="3.5" x2="14" y2="3.5"/><line class="cls-2" x1="22" y1="13.5" x2="11" y2="13.5"/><line class="cls-2" x1="24" y1="32.5" x2="14" y2="32.5"/><line class="cls-2" x1="19.5" y1="20.5" x2="3" y2="20.5"/><line class="cls-2" x1="19.5" y1="23.5" y2="23.5"/><line class="cls-2" x1="20.5" y1="26.5" x2="7" y2="26.5"/><line class="cls-2" x1="21.5" y1="29.5" x2="8" y2="29.5"/><line class="cls-2" x1="27.5" y1="35.5" x2="14" y2="35.5"/></g></g></svg>