<svg xmlns="http://www.w3.org/2000/svg" viewBox="0 0 54 50"><title>icn-brain</title><g id="Layer_2" data-name="Layer 2"><g id="Layer_1-2" data-name="Layer 1"><path d="M53.14,19.36a8.89,8.89,0,0,0-4.29-7.53A13.41,13.41,0,0,0,35.59,1.92a14.38,14.38,0,0,0-4.48.71,9.93,9.93,0,0,0-14.31.88,9.66,9.66,0,0,0-1.2-.07A9.46,9.46,0,0,0,6.4,10,9,9,0,0,0,0,18.51a8.72,8.72,0,0,0,.69,3.37A8.72,8.72,0,0,0,0,25.25a8.91,8.91,0,0,0,5,7.94,10,10,0,0,0,11.3,1.56,10,10,0,0,0,12.14,1.89,11.93,11.93,0,0,0,5.61,2.21,46.85,46.85,0,0,1,6.13,8l.87,1.48,4.37-3.13-2.44-7a7.05,7.05,0,0,0,3.23-3,9,9,0,0,0,4.88-7.87,8.62,8.62,0,0,0-.27-2.15A8.76,8.76,0,0,0,53.14,19.36ZM44.42,32.64l-.55.25-.24.55a4,4,0,0,1-2.92,2.24L38.93,36l2.32,6.65a44.26,44.26,0,0,0-5.37-6.46l-.41-.4-.57,0a8.84,8.84,0,0,1-3.78-1.16l4.52-3.57a5.14,5.14,0,0,1,3.3-1.19l2.07.55.78-2.93-2.08-.55c-1.82-.48-4.42.54-6,1.74l-5.07,4h0l-1,.78a6.48,6.48,0,0,1-4,1.31,6.88,6.88,0,0,1-5.37-2.59V27.62a4.42,4.42,0,0,1,1-2.58L21,24l-1.64-2.68-1.74,1a5.09,5.09,0,0,0-1.86,2.34,6.62,6.62,0,0,0-1.13-.86L9.56,20.75,7.94,23.44l5,3.08a6.35,6.35,0,0,1,2.34,3.28v2a9.06,9.06,0,0,1-3.58.87A6.59,6.59,0,0,1,7,30.78l-.18-.19-.23-.11a5.84,5.84,0,0,1-3.48-5.23,5.39,5.39,0,0,1,.68-2.62l.41-.75-.41-.75a5.38,5.38,0,0,1-.67-2.62,6,6,0,0,1,4.91-5.72l1-.23.18-1A6.25,6.25,0,0,1,15.6,6.57a6.62,6.62,0,0,1,1.54.18L18.22,7l.59-.93a6.59,6.59,0,0,1,5.55-2.92,6.72,6.72,0,0,1,4,1.27L27.17,5.5l0,0-.82.76a5.37,5.37,0,0,1-3,1.21l-2.22-.34-.47,3.1,2.22.34.23,0a7.13,7.13,0,0,0-.3,3.37l.51,3,3.09-.53-.51-3a4.66,4.66,0,0,1,1.19-3.6l1.29-1.2c.18-.14.34-.29.5-.43l2.46-2.3a11.24,11.24,0,0,1,4.22-.82c5.14,0,9.49,3.39,10.34,8.06l.13.76.69.35A5.85,5.85,0,0,1,50,19.36a5.44,5.44,0,0,1-1,3.07L48.56,22h0l-2-2a8.33,8.33,0,0,1-1.93-4.18l-.34-3.05-3,.33.33,3a10.66,10.66,0,0,0,.8,2.82l-.59-.06L35,18.5l-.14,3,6.82.32a7.83,7.83,0,0,1,4.28,1.75l1.62,1.61.06.15a5.52,5.52,0,0,1,.38,2A5.84,5.84,0,0,1,44.42,32.64Z"/></g></g></svg>