<svg{% if include.class %} class="{{ include.class }}"{% endif %}{% if include.width %} width="{{ include.width }}"{% endif %}{% if include.height %} height="{{ include.height }}"{% endif %} id="tablet-black" data-name="tablet-black" xmlns="http://www.w3.org/2000/svg" xmlns:xlink="http://www.w3.org/1999/xlink" viewBox="0 0 516 362"><defs><style>.tablet-cls-1{fill:none;}.tablet-cls-2{fill:#333;}.tablet-cls-3{fill:#212121;}.tablet-cls-4{fill:url(#linear-gradient);}.tablet-cls-5{fill:#fff;opacity:0.2;}.tablet-cls-6{clip-path:url(#clip-path);}.tablet-cls-7{fill:#c63527;}</style><linearGradient id="linear-gradient" x1="15.48" y1="194.09" x2="15.48" y2="167.91" gradientUnits="userSpaceOnUse"><stop offset="0" stop-color="#545454"/><stop offset="1"/></linearGradient><clipPath id="clip-path"><rect class="tablet-cls-1" x="207.89" y="131" width="100" height="100"/></clipPath></defs><title>iPad Black</title><rect width="516" height="362" rx="23.47" ry="23.47"/><rect class="tablet-cls-2" x="44" y="20" width="430" height="322"/><ellipse class="tablet-cls-3" cx="22.34" cy="181" rx="13.13" ry="13.09"/><path class="tablet-cls-4" d="M22,167.91v26.18a13.09,13.09,0,1,1,0-26.18Z"/><ellipse class="tablet-cls-5" cx="493.96" cy="181" rx="2.59" ry="2.59"/><g class="tablet-cls-6"><g class="tablet-cls-6"><path class="tablet-cls-7" d="M283.89,131h24v24h-.16a24,24,0,0,1-23.84-24"/><path class="tablet-cls-7" d="M267.89,131h-12c.17,28.76,23.23,52,51.66,52h.34V171h-.26c-21.87,0-39.61-17.88-39.74-40"/><path class="tablet-cls-7" d="M251.89,131h-12c.23,37.6,30.39,68,67.56,68h.44V187h-.37c-30.61,0-55.45-25-55.63-56"/><path class="tablet-cls-7" d="M235.89,131h-12c.28,46.45,37.54,84,83.45,84h.55V203h-.47c-39.36,0-71.29-32.18-71.53-72"/><path class="tablet-cls-7" d="M219.89,131h-12c.33,55.3,44.69,100,99.35,100h.65V219h-.57c-48.11,0-87.14-39.34-87.43-88"/></g></g></svg>