<svg{% if include.class %} class="{{ include.class }}"{% endif %}{% if include.width %} width="{{ include.width }}"{% endif %}{% if include.height %} height="{{ include.height }}"{% endif %} data-name="iphone-white" xmlns="http://www.w3.org/2000/svg" viewBox="0 0 225 458"><defs><style>.iphone-cls-1{fill:#fff;}.iphone-cls-2{fill:#e6e6e6;}.iphone-cls-3{fill:#c3c3c3;}.iphone-cls-4{fill:none;stroke:#c3c3c3;stroke-linecap:round;stroke-miterlimit:10;stroke-width:3px;}.iphone-cls-5{fill:#c53527;}</style></defs><title>iphone-white</title><rect class="iphone-cls-1" x="1.5" y="2.5" width="222" height="453.81" rx="31.12" ry="31.12"/><path class="iphone-cls-2" d="M192.38,4A29.62,29.62,0,0,1,222,33.62V425.19a29.62,29.62,0,0,1-29.62,29.62H32.62A29.62,29.62,0,0,1,3,425.19V33.62A29.62,29.62,0,0,1,32.62,4H192.38m0-3H32.62A32.65,32.65,0,0,0,0,33.62V425.19a32.65,32.65,0,0,0,32.62,32.62H192.38A32.65,32.65,0,0,0,225,425.19V33.62A32.65,32.65,0,0,0,192.38,1Z"/><circle class="iphone-cls-3" cx="76.99" cy="31.62" r="2"/><line class="iphone-cls-4" x1="93.76" y1="31.64" x2="131.24" y2="31.64"/><rect class="iphone-cls-2" x="15" y="58" width="193" height="343"/><path class="iphone-cls-5" d="M124.46,206.91h11v11h-.07A11,11,0,0,1,124.46,206.91Z"/><path class="iphone-cls-5" d="M117.1,206.91h-5.52a23.92,23.92,0,0,0,23.77,23.92h.15V225.3h-.12A18.4,18.4,0,0,1,117.1,206.91Z"/><path class="iphone-cls-5" d="M109.74,206.91h-5.52a31.28,31.28,0,0,0,31.08,31.28h.2v-5.52h-.17A25.76,25.76,0,0,1,109.74,206.91Z"/><path class="iphone-cls-5" d="M102.38,206.91H96.86c.13,21.36,17.27,38.64,38.39,38.64h.25V240h-.21A33.12,33.12,0,0,1,102.38,206.91Z"/><path class="iphone-cls-5" d="M95,206.91H89.5c.15,25.43,20.56,46,45.7,46h.3v-5.52h-.26C113.11,247.39,95.16,229.29,95,206.91Z"/></svg>