<svg{% if include.class %} class="{{ include.class }}"{% endif %}{% if include.width %} width="{{ include.width }}"{% endif %}{% if include.height %} height="{{ include.height }}"{% endif %} data-name="iphone-landscape" xmlns="http://www.w3.org/2000/svg" viewBox="0 0 728 357"><defs><style>.iphonelandscape-cls-1{fill:#fff;}.iphonelandscape-cls-2{fill:#e6e6e6;}.iphonelandscape-cls-3{fill:#c3c3c3;}.iphonelandscape-cls-4{fill:none;stroke:#c3c3c3;stroke-linecap:round;stroke-miterlimit:10;stroke-width:3px;}.iphonelandscape-cls-5{fill:#c53527;}</style></defs><title>iphone-landscape-white</title><rect class="iphonelandscape-cls-1" x="1.59" y="1.41" width="724.91" height="353.7" rx="48.93" ry="48.93"/><path class="iphonelandscape-cls-2" d="M677.57,2.91A47.43,47.43,0,0,1,725,50.34V306.17a47.43,47.43,0,0,1-47.43,47.43h-627A47.43,47.43,0,0,1,3.09,306.17V50.34A47.43,47.43,0,0,1,50.53,2.91h627m0-3h-627A50.49,50.49,0,0,0,.09,50.34V306.17A50.49,50.49,0,0,0,50.53,356.6h627A50.48,50.48,0,0,0,728,306.17V50.34A50.48,50.48,0,0,0,677.57-.09Z"/><circle class="iphonelandscape-cls-3" cx="47.33" cy="235.12" r="3.2"/><line class="iphonelandscape-cls-4" x1="47.35" y1="208.27" x2="47.35" y2="148.24"/><g id="screen"><rect class="iphonelandscape-cls-2" x="209.5" y="-97.5" width="309" height="552" transform="translate(185.5 542.5) rotate(-90)"/><path class="iphonelandscape-cls-5" d="M382.8,142.78h17.68v17.68h-.11A17.68,17.68,0,0,1,382.8,142.78Z"/><path class="iphonelandscape-cls-5" d="M371,142.78h-8.83c.12,21.18,17.11,38.31,38.05,38.31h.25v-8.84h-.19A29.47,29.47,0,0,1,371,142.78Z"/><path class="iphonelandscape-cls-5" d="M359.23,142.78h-8.84c.17,27.7,22.38,50.09,49.77,50.09h.32V184h-.27C377.66,184,359.37,165.59,359.23,142.78Z"/><path class="iphonelandscape-cls-5" d="M347.44,142.78H338.6c.21,34.22,27.66,61.88,61.48,61.88h.4v-8.84h-.34C371.14,195.82,347.62,172.11,347.44,142.78Z"/><path class="iphonelandscape-cls-5" d="M335.66,142.78h-8.84c.24,40.73,32.92,73.66,73.18,73.66h.48V207.6h-.42C364.63,207.6,335.87,178.62,335.66,142.78Z"/></g></svg>