<svg{% if include.class %} class="{{ include.class }}"{% endif %}{% if include.width %} width="{{ include.width }}"{% endif %}{% if include.height %} height="{{ include.height }}"{% endif %} xmlns="http://www.w3.org/2000/svg" viewBox="0 0 137.65 46"><defs><style>.ot-black-fill{fill:#101820;}.ot-red-fill{fill:#c53527;}</style></defs><title>OpenTrack</title><g id="Layer_2" data-name="Layer 2"><g id="Layer_1-2" data-name="Layer 1"><path class="ot-black-fill" d="M68.38,5.51a8.37,8.37,0,0,1,2.35,6.2v3.14a8.38,8.38,0,0,1-2.35,6.2,8.34,8.34,0,0,1-6.17,2.32,8,8,0,0,1-8.52-8.52V11.71a8.39,8.39,0,0,1,2.36-6.2,8.34,8.34,0,0,1,6.16-2.33A8.35,8.35,0,0,1,68.38,5.51ZM62.21,7.63a4.05,4.05,0,0,0-3,1,4.1,4.1,0,0,0-1.06,3.05v3.14a4.1,4.1,0,0,0,1.06,3,5,5,0,0,0,6,0,4.14,4.14,0,0,0,1.06-3V11.71a4.19,4.19,0,0,0-1.06-3.07A4.14,4.14,0,0,0,62.21,7.63Z"/><path class="ot-black-fill" d="M80.7,3.18A7.17,7.17,0,0,1,86,5.38a7.16,7.16,0,0,1,2.19,5.28A7.19,7.19,0,0,1,86,16a7.17,7.17,0,0,1-5.29,2.2h-1V13.7h1a2.93,2.93,0,0,0,2.15-.88,3,3,0,0,0,.88-2.16,3,3,0,0,0-3-3H78.28V23.37H73.84V7.5a4.3,4.3,0,0,1,4.32-4.32Z"/><path class="ot-black-fill" d="M103.72,18.92v4.45H94.78A4.3,4.3,0,0,1,90.46,19V7.5a4.16,4.16,0,0,1,1.26-3,4.17,4.17,0,0,1,3.06-1.27h9V7.63H94.91v3h8.43v4.18H94.91v4.08Z"/><path class="ot-black-fill" d="M111.34,23.37h-4.45V7.52a4.44,4.44,0,0,1,1.06-3,3.82,3.82,0,0,1,2.45-1.33,3.72,3.72,0,0,1,2.77.69,5.4,5.4,0,0,1,2,3l3.36,11.46V3.18H123V19a4.52,4.52,0,0,1-1.06,3.06,3.8,3.8,0,0,1-2.47,1.31,3.91,3.91,0,0,1-2.76-.72,5.4,5.4,0,0,1-2-3L111.34,8.18Z"/><path class="ot-black-fill" d="M69.26,25.52v4.42H63.68V45.71H59.23V29.94H53.64V25.52Z"/><path class="ot-black-fill" d="M81.84,45.71l-5-6.07a3.27,3.27,0,0,1-1.08-2.21,2.68,2.68,0,0,1,2.68-2.68h1.44a2.24,2.24,0,0,0,1.56-.42,3.05,3.05,0,0,0,.42-2,3,3,0,0,0-.42-2A2.24,2.24,0,0,0,79.87,30H74.74V45.71H70.3V29.84a4.3,4.3,0,0,1,4.32-4.32h5.25a5.94,5.94,0,0,1,6.41,6.42,6.31,6.31,0,0,1-1.72,4.69A6.23,6.23,0,0,1,81,38.26l6.14,7.45Z"/><path class="ot-black-fill" d="M99.82,41.33H94.39l1.08-3.56h3.27l-2.2-7.21L91.92,45.71H87.26l5.24-17A4.72,4.72,0,0,1,94,26.49a3.94,3.94,0,0,1,5.18,0,4.65,4.65,0,0,1,1.45,2.19l5.24,17h-4.67Z"/><path class="ot-black-fill" d="M119.9,25.64v4.42h-2c-3.3,0-5.38.26-6.22.81a2.72,2.72,0,0,0-1,1.33,9.45,9.45,0,0,0-.51,3.47,10.16,10.16,0,0,0,.44,3.32,2.89,2.89,0,0,0,.94,1.36q1.23.94,6.4.94h2v4.42h-2a40.41,40.41,0,0,1-5-.22,8.79,8.79,0,0,1-4.15-1.64,7.25,7.25,0,0,1-2.38-3.31,14.3,14.3,0,0,1-.74-4.87,13.63,13.63,0,0,1,.85-5.15,7.06,7.06,0,0,1,2.74-3.35,9.33,9.33,0,0,1,4-1.36,46.1,46.1,0,0,1,4.67-.17Z"/><path class="ot-black-fill" d="M126.07,45.71h-4.45V25.52h4.45Zm6.21,0-4.89-7.16c-.54-.78-.83-1.22-.89-1.33a3.55,3.55,0,0,1-.35-1.6,3.47,3.47,0,0,1,.35-1.6c.06-.11.35-.55.89-1.33l4.89-7.17h5.37l-6.6,9.66a.69.69,0,0,0,0,.86l6.6,9.67Z"/><path class="ot-red-fill" d="M35,0H46V11h-.07A11,11,0,0,1,35,0Z"/><path class="ot-red-fill" d="M27.6,0H22.08A23.92,23.92,0,0,0,45.85,23.92H46V18.4h-.12A18.4,18.4,0,0,1,27.6,0Z"/><path class="ot-red-fill" d="M20.24,0H14.72A31.28,31.28,0,0,0,45.8,31.28H46V25.76h-.17A25.76,25.76,0,0,1,20.24,0Z"/><path class="ot-red-fill" d="M12.88,0H7.36c.13,21.37,17.27,38.64,38.39,38.64H46V33.12h-.21A33.12,33.12,0,0,1,12.88,0Z"/><path class="ot-red-fill" d="M5.52,0H0C.15,25.44,20.56,46,45.7,46H46V40.47h-.26C23.61,40.48,5.66,22.38,5.52,0Z"/></g></g></svg>
